<svg width="119" height="201" viewBox="0 0 119 201" fill="none" xmlns="http://www.w3.org/2000/svg">
<ellipse cx="21.6052" cy="73.838" rx="11.3108" ry="11.3134" fill="#EEF1F6"/>
<path d="M37.3459 73.8379C37.3459 82.5332 30.2987 89.5817 21.6059 89.5817C12.9131 89.5817 5.86584 82.5332 5.86584 73.8379C5.86584 65.1427 12.9131 58.0942 21.6059 58.0942C30.2987 58.0942 37.3459 65.1427 37.3459 73.8379Z" stroke="#EEF1F6" stroke-width="2"/>
<ellipse cx="80.8744" cy="116.829" rx="9.04867" ry="9.05069" fill="#EEF1F6"/>
<path d="M94.352 116.829C94.352 124.274 88.3175 130.31 80.8741 130.31C73.4307 130.31 67.3962 124.274 67.3962 116.829C67.3962 109.383 73.4307 103.347 80.8741 103.347C88.3175 103.347 94.352 109.383 94.352 116.829Z" stroke="#EEF1F6" stroke-width="2"/>
<ellipse cx="78.1594" cy="186.519" rx="9.04867" ry="9.05069" fill="#EEF1F6"/>
<path d="M91.6374 186.519C91.6374 193.965 85.6029 200 78.1595 200C70.7161 200 64.6816 193.965 64.6816 186.519C64.6816 179.073 70.7161 173.038 78.1595 173.038C85.6029 173.038 91.6374 179.073 91.6374 186.519Z" stroke="#EEF1F6" stroke-width="2"/>
<line y1="-1" x2="43.2577" y2="-1" transform="matrix(0.794886 0.606759 -0.606588 0.795016 34.7258 83.3411)" stroke="#EEF1F6" stroke-width="2"/>
<line y1="-1" x2="24.6954" y2="-1" transform="matrix(0.996145 -0.0877246 0.0876858 0.996148 94.3999 116.331)" stroke="#EEF1F6" stroke-width="2"/>
<line y1="-1" x2="43.2909" y2="-1" transform="matrix(0.891352 -0.453313 0.453152 0.891433 36.5356 67.05)" stroke="#EEF1F6" stroke-width="2"/>
<line y1="-1" x2="31.0355" y2="-1" transform="matrix(0.030675 -0.999529 0.999529 0.0306887 85.3909 32.0209)" stroke="#EEF1F6" stroke-width="2"/>
<line y1="-1" x2="58.594" y2="-1" transform="matrix(-0.273402 -0.9619 0.961868 -0.273514 18.1702 58.2659)" stroke="#EEF1F6" stroke-width="2"/>
<line y1="-1" x2="40.7683" y2="-1" transform="matrix(0.0443907 -0.999014 0.999013 0.0444105 79.9692 172.038)" stroke="#EEF1F6" stroke-width="2" stroke-dasharray="5 3"/>
<line y1="-1" x2="56.175" y2="-1" transform="matrix(0.118183 -0.992992 0.992986 0.118235 21.7529 57.6865)" stroke="#EEF1F6" stroke-width="2" stroke-dasharray="5 3"/>
<line y1="-1" x2="94.619" y2="-1" transform="matrix(-0.372968 -0.927844 0.927787 -0.373111 69.1108 173.848)" stroke="#EEF1F6" stroke-width="2" stroke-dasharray="5 3"/>
<ellipse cx="84.4937" cy="42.6131" rx="6.33407" ry="6.33548" fill="#018BFF"/>
<path d="M94.3521 42.6131C94.3521 48.0593 89.9381 52.474 84.4937 52.474C79.0492 52.474 74.6353 48.0593 74.6353 42.6131C74.6353 37.167 79.0492 32.7523 84.4937 32.7523C89.9381 32.7523 94.3521 37.167 94.3521 42.6131Z" stroke="#018BFF" stroke-width="2"/>
</svg>
