<svg width="115" height="189" viewBox="0 0 115 189" fill="none" xmlns="http://www.w3.org/2000/svg">
<ellipse cx="97.6515" cy="125.185" rx="11.135" ry="11.1374" transform="rotate(180 97.6515 125.185)" fill="#EEF1F6"/>
<path d="M82.1716 125.185C82.1716 116.633 89.1023 109.701 97.6514 109.701C106.2 109.701 113.131 116.633 113.131 125.185C113.131 133.736 106.2 140.668 97.6514 140.668C89.1023 140.668 82.1716 133.736 82.1716 125.185Z" stroke="#EEF1F6" stroke-width="2"/>
<ellipse cx="41.9767" cy="14.2558" rx="8.90797" ry="8.90995" transform="rotate(180 41.9767 14.2558)" fill="#EEF1F6"/>
<path d="M28.7239 14.2558C28.7239 6.93454 34.6575 0.99987 41.9766 0.99987C49.2957 0.99987 55.2294 6.93454 55.2294 14.2558C55.2294 21.577 49.2957 27.5117 41.9766 27.5117C34.6575 27.5117 28.7239 21.577 28.7239 14.2558Z" stroke="#EEF1F6" stroke-width="2"/>
<ellipse cx="35.7409" cy="155.924" rx="6.23558" ry="6.23697" transform="rotate(180 35.7409 155.924)" fill="#EEF1F6"/>
<path d="M26.0514 155.924C26.0514 150.571 30.3898 146.232 35.741 146.232C41.0922 146.232 45.4305 150.571 45.4305 155.924C45.4305 161.277 41.0922 165.616 35.741 165.616C30.3898 165.616 26.0514 161.277 26.0514 155.924Z" stroke="#EEF1F6" stroke-width="2"/>
<line y1="-1" x2="42.5851" y2="-1" transform="matrix(-0.794886 -0.606759 0.606588 -0.795016 84.7349 115.829)" stroke="#EEF1F6" stroke-width="2"/>
<line y1="-1" x2="25.0059" y2="-1" transform="matrix(-0.997458 -0.0712628 0.0712313 -0.99746 25.9424 80.1895)" stroke="#EEF1F6" stroke-width="2"/>
<line y1="-1" x2="43.0285" y2="-1" transform="matrix(-0.890207 0.455556 -0.455395 -0.890289 82.9532 131.867)" stroke="#EEF1F6" stroke-width="2"/>
<line y1="-1" x2="26.7432" y2="-1" transform="matrix(-0.499639 -0.866234 0.866137 -0.499806 53.557 188)" stroke="#EEF1F6" stroke-width="2"/>
<line y1="-1" x2="40.1344" y2="-1" transform="matrix(-0.0443907 0.999014 -0.999013 -0.0444105 40.1949 28.5117)" stroke="#EEF1F6" stroke-width="2" stroke-dasharray="5 3"/>
<line y1="-1" x2="93.1477" y2="-1" transform="matrix(0.372968 0.927844 -0.927787 0.373111 50.8846 26.73)" stroke="#EEF1F6" stroke-width="2" stroke-dasharray="5 3"/>
<line y1="-1" x2="35.9133" y2="-1" transform="matrix(0.694514 0.719479 -0.719324 0.694675 1 125.63)" stroke="#EEF1F6" stroke-width="2" stroke-dasharray="5 3"/>
<ellipse cx="39.3042" cy="82.8625" rx="8.90797" ry="8.90995" transform="rotate(180 39.3042 82.8625)" fill="#018BFF"/>
<path d="M26.0515 82.8625C26.0515 75.5412 31.9852 69.6066 39.3043 69.6066C46.6233 69.6066 52.557 75.5412 52.557 82.8625C52.557 90.1837 46.6233 96.1184 39.3043 96.1184C31.9852 96.1184 26.0515 90.1837 26.0515 82.8625Z" stroke="#018BFF" stroke-width="2"/>
</svg>
