<svg width="1280" height="832" viewBox="0 0 1280 832" fill="none" xmlns="http://www.w3.org/2000/svg">
<g clip-path="url(#clip0_1434_28)">
<g opacity="0.5">
<circle cx="705.395" cy="147.699" r="237.202" transform="rotate(-32.2159 705.395 147.699)" fill="#E2E3E5"/>
<circle cx="1138.95" cy="835.756" r="237.202" transform="rotate(-32.2159 1138.95 835.756)" fill="#E2E3E5"/>
<path d="M630.069 371.394L939.696 176.292C939.696 176.292 910.004 307.148 912.36 361.736C914.715 416.325 937.886 465.809 955.951 494.478C974.016 523.147 1007.16 550.324 1042.43 568.154C1077.69 585.984 1195.59 607.821 1195.59 607.821L908.899 788.471C908.899 788.471 930.107 695.003 933.485 636.801C936.863 578.599 918.798 549.93 904.346 526.995C889.894 504.059 851.643 456.068 803.417 430.383C755.191 404.699 630.069 371.394 630.069 371.394Z" fill="#E2E3E5"/>
</g>
<g opacity="0.5">
<circle cx="630.385" cy="562.302" r="27.9042" transform="rotate(59.0783 630.385 562.302)" fill="#E2E3E5"/>
<circle cx="341.208" cy="549.329" r="87.0397" transform="rotate(26.8624 341.208 549.329)" fill="#E2E3E5"/>
<circle cx="127.684" cy="608.596" r="87.0397" transform="rotate(26.8624 127.684 608.596)" fill="#E2E3E5"/>
<circle cx="206.367" cy="815.55" r="87.0397" transform="rotate(26.8624 206.367 815.55)" fill="#E2E3E5"/>
<path d="M256.587 567.798L376.387 628.477C376.387 628.477 329.596 643.804 312.856 654.839C296.116 665.874 284.908 682.498 279.29 693.591C273.672 704.683 271.367 720.241 272.404 734.705C273.441 749.169 288.797 790.398 288.797 790.398L177.872 734.214C177.872 734.214 211.294 723.266 230.252 713.355C249.21 703.444 254.829 692.351 259.324 683.477C263.818 674.603 271.713 653.513 270.705 633.489C269.696 613.465 256.587 567.798 256.587 567.798Z" fill="#E2E3E5"/>
</g>
</g>
<defs>
<clipPath id="clip0_1434_28">
<rect width="1280" height="832" fill="white"/>
</clipPath>
</defs>
</svg>
