<?xml version="1.0" encoding="UTF-8"?><svg xmlns="http://www.w3.org/2000/svg" viewBox="0 0 53.78595 50.50393"><defs><style>.d{fill:#fff;}</style></defs><g id="a"/><g id="b"><g id="c"><g><path class="d" d="M36.10784,0c-10.57764,0-17.67752,6.158-17.67752,18.11272v8.51857c1.03889-.49569,2.19637-.78154,3.42214-.78154,1.24093,0,2.41189,.29278,3.46048,.80005v-8.53708c0-7.75249,4.27489-11.73737,10.79491-11.73737,6.5206,0,10.79549,3.98488,10.79549,11.73737v18.61948h6.88262V18.11272C53.78595,6.08599,46.68599,0,36.10784,0Z"/><path class="d" d="M21.57961,28.00191c-1.32959,0-2.55361,.44798-3.54064,1.19381l-6.48109-4.42834c.14297-.50761,.22491-1.04058,.22491-1.59332,0-3.2483-2.64308-5.89138-5.89138-5.89138S0,19.92574,0,23.17405c0,3.2489,2.64308,5.89138,5.8914,5.89138,1.32959,0,2.5536-.44798,3.54062-1.19379l6.48111,4.42834c-.14297,.50761-.22491,1.04058-.22491,1.59332s.08193,1.08572,.22491,1.59332l-6.48111,4.42832c-.98703-.7458-2.21104-1.19379-3.54062-1.19379-3.24832,0-5.8914,2.64248-5.8914,5.89138s2.64308,5.89138,5.8914,5.89138,5.89138-2.64248,5.89138-5.89138c0-.55274-.08193-1.08572-.22491-1.59332l6.48109-4.42832c.98703,.7458,2.21105,1.19379,3.54064,1.19379,3.2483,0,5.89138-2.6425,5.89138-5.89138s-2.64308-5.8914-5.89138-5.8914Z"/></g></g></g></svg>