<svg width="85" height="32" viewBox="0 0 85 32" fill="none" xmlns="http://www.w3.org/2000/svg">
<path d="M16.6728 8.10666C12.1763 8.10666 9.15875 10.7349 9.15875 15.8336V19.4688C9.61528 19.2435 10.1163 19.124 10.625 19.1189C11.1346 19.119 11.6375 19.2358 12.0955 19.4603V15.8165C12.0955 12.5099 13.9145 10.8117 16.6855 10.8117C19.4565 10.8117 21.25 12.5099 21.25 15.8165V23.7611H24.1783V15.8165C24.1868 10.688 21.1693 8.10666 16.6728 8.10666Z" fill="white"/>
<path d="M25.7805 16.128C25.7805 11.4901 29.1805 8.0896 33.9702 8.0896C38.76 8.0896 42.1005 11.5029 42.1005 16.128V17.2075H28.8575C29.2825 19.9296 31.3225 21.4443 33.9575 21.4443C35.9295 21.4443 37.315 20.8256 38.2075 19.4987H41.4375C40.2687 22.3403 37.4977 24.1664 33.9575 24.1664C29.1677 24.1664 25.7805 20.7659 25.7805 16.128ZM39.0192 14.5835C38.4327 12.1387 36.4352 10.8117 33.9702 10.8117C31.5052 10.8117 29.5375 12.1728 28.951 14.5835H39.0192Z" fill="white"/>
<path d="M43.6645 16.128C43.6645 11.4944 47.0645 8.09387 51.8542 8.09387C56.644 8.09387 60.044 11.5072 60.044 16.128C60.044 20.7488 56.644 24.1664 51.8542 24.1664C47.0645 24.1664 43.6645 20.7659 43.6645 16.128ZM57.0902 16.128C57.0902 13.0389 54.995 10.8117 51.8542 10.8117C48.7135 10.8117 46.6225 13.0389 46.6225 16.128C46.6225 19.2171 48.7135 21.4443 51.85 21.4443C54.9865 21.4443 57.0902 19.2213 57.0902 16.128Z" fill="white"/>
<path d="M76.772 26.8032H77.112C78.9905 26.8032 79.696 25.9499 79.696 23.8165V8.60159H82.6243V23.6203C82.6243 27.392 81.1452 29.3376 77.3883 29.3376H76.772V26.8032Z" fill="white"/>
<path d="M75.31 25.2331H72.3817V21.6107H64.9655C64.2884 21.6344 63.618 21.4696 63.0284 21.1345C62.4389 20.7994 61.9531 20.3071 61.625 19.712C61.3585 19.1528 61.2546 18.5293 61.3252 17.9134C61.3959 17.2975 61.6383 16.7142 62.0245 16.2304L68.68 7.46241C69.14 6.83915 69.784 6.37724 70.5204 6.1423C71.2567 5.90736 72.0482 5.91134 72.7822 6.15367C73.5162 6.39599 74.1555 6.86435 74.6093 7.4922C75.0631 8.12006 75.3082 8.8755 75.31 9.65121V19.0037H77.5072V21.6107H75.31V25.2331ZM64.4597 17.8347C64.3722 17.9597 64.3248 18.1085 64.3238 18.2613C64.3232 18.3584 64.3418 18.4547 64.3786 18.5445C64.4153 18.6343 64.4695 18.7159 64.5378 18.7845C64.6062 18.8532 64.6875 18.9076 64.777 18.9444C64.8664 18.9813 64.9623 19 65.059 18.9995H72.3817V9.57868C72.3871 9.42012 72.3406 9.26415 72.2492 9.13468C72.1579 9.00521 72.0268 8.90939 71.876 8.86188C71.7889 8.837 71.6988 8.82409 71.6083 8.82348C71.4938 8.82341 71.3811 8.85182 71.2802 8.90617C71.1793 8.96053 71.0935 9.03913 71.0303 9.13495L64.4597 17.8347Z" fill="white"/>
<path d="M81.175 2.35947C80.6789 2.35863 80.1937 2.50555 79.7807 2.78164C79.3678 3.05774 79.0458 3.45059 78.8553 3.9105C78.6649 4.37041 78.6146 4.87669 78.7109 5.36529C78.8072 5.85389 79.0457 6.30283 79.3962 6.65531C79.7467 7.0078 80.1935 7.24797 80.68 7.34545C81.1665 7.44293 81.6709 7.39333 82.1293 7.20292C82.5878 7.01252 82.9796 6.68987 83.2554 6.2758C83.5311 5.86174 83.6782 5.37487 83.6782 4.8768C83.6782 4.2099 83.4146 3.57026 82.9453 3.09829C82.476 2.62632 81.8393 2.3606 81.175 2.35947Z" fill="white"/>
<path d="M10.4975 20.0533C9.95368 20.0539 9.42509 20.2338 8.99301 20.5653L6.23901 18.6752C6.3003 18.4543 6.33175 18.2261 6.33251 17.9968C6.33841 17.4987 6.19673 17.0101 5.92546 16.593C5.6542 16.1759 5.26559 15.8492 4.80898 15.6543C4.35237 15.4593 3.84836 15.405 3.36096 15.4983C2.87355 15.5915 2.42473 15.828 2.0715 16.1778C1.71826 16.5276 1.47654 16.9749 1.37704 17.4629C1.27754 17.951 1.32473 18.4576 1.51264 18.9186C1.70055 19.3797 2.02068 19.7742 2.4324 20.0522C2.84412 20.3302 3.32884 20.4791 3.82501 20.48C4.369 20.4804 4.89788 20.3004 5.32951 19.968L8.07501 21.8709C7.9503 22.316 7.9503 22.7869 8.07501 23.232L5.32101 25.1221C4.89169 24.7915 4.36609 24.6116 3.82501 24.6101C3.32871 24.6093 2.84333 24.7563 2.43032 25.0326C2.01731 25.3089 1.69526 25.702 1.50495 26.1621C1.31464 26.6223 1.26462 27.1288 1.36124 27.6175C1.45786 28.1062 1.69676 28.5552 2.04769 28.9075C2.39863 29.2598 2.84581 29.4996 3.33262 29.5966C3.81942 29.6936 4.32395 29.6434 4.7823 29.4523C5.24066 29.2613 5.63224 28.938 5.90744 28.5233C6.18265 28.1087 6.3291 27.6214 6.32826 27.1232C6.32813 26.8969 6.29812 26.6717 6.23901 26.4533L8.99301 24.5632C9.42509 24.8947 9.95368 25.0746 10.4975 25.0752C11.13 25.0298 11.7219 24.7456 12.154 24.2797C12.5861 23.8138 12.8263 23.2008 12.8263 22.5643C12.8263 21.9277 12.5861 21.3147 12.154 20.8488C11.7219 20.3829 11.13 20.0987 10.4975 20.0533Z" fill="white"/>
</svg>
