<svg width="8" height="12" viewBox="0 0 8 12" fill="none" xmlns="http://www.w3.org/2000/svg">
<path d="M0.666667 1.16564e-07L1.33333 2.33127e-07C1.70152 2.97504e-07 2 0.298477 2 0.666667L2 1.33333C2 1.70152 1.70152 2 1.33333 2L0.666666 2C0.298476 2 -2.97504e-07 1.70152 -2.33127e-07 1.33333L-1.16564e-07 0.666667C-5.21873e-08 0.298477 0.298477 5.21873e-08 0.666667 1.16564e-07Z" fill="#535B66"/>
<path d="M6.66667 1.16564e-06L7.33333 1.2822e-06C7.70152 1.34658e-06 8 0.298478 8 0.666668L8 1.33333C8 1.70152 7.70152 2 7.33333 2L6.66667 2C6.29848 2 6 1.70152 6 1.33333L6 0.666668C6 0.298478 6.29848 1.10126e-06 6.66667 1.16564e-06Z" fill="#535B66"/>
<path d="M7.33333 10L6.66666 10C6.29847 10 6 10.2985 6 10.6667L6 11.3333C6 11.7015 6.29847 12 6.66666 12L7.33333 12C7.70152 12 8 11.7015 8 11.3333L8 10.6667C8 10.2985 7.70152 10 7.33333 10Z" fill="#535B66"/>
<path d="M0.666666 5L1.33333 5C1.70152 5 2 5.29848 2 5.66667L2 6.33333C2 6.70152 1.70152 7 1.33333 7L0.666665 7C0.298476 7 -1.17173e-06 6.70152 -1.10736e-06 6.33333L-9.90791e-07 5.66667C-9.26415e-07 5.29848 0.298476 5 0.666666 5Z" fill="#535B66"/>
<path d="M7.33333 5L6.66667 5C6.29848 5 6 5.29848 6 5.66667L6 6.33333C6 6.70152 6.29848 7 6.66667 7L7.33333 7C7.70152 7 8 6.70152 8 6.33333L8 5.66667C8 5.29848 7.70152 5 7.33333 5Z" fill="#535B66"/>
<path d="M0.666665 10L1.33333 10C1.70152 10 2 10.2985 2 10.6667L2 11.3333C2 11.7015 1.70152 12 1.33333 12L0.666665 12C0.298475 12 -2.04596e-06 11.7015 -1.98158e-06 11.3333L-1.86502e-06 10.6667C-1.80064e-06 10.2985 0.298475 10 0.666665 10Z" fill="#535B66"/>
</svg>
