<?xml version="1.0" encoding="UTF-8"?><svg xmlns="http://www.w3.org/2000/svg" xmlns:xlink="http://www.w3.org/1999/xlink" viewBox="0 0 103.30033 99.73418"><defs><style>.f{fill:#3f7ec1;}.g{clip-path:url(#e);}.h{clip-path:url(#d);}.i{fill:none;}.j{fill:#fff;stroke:#fff;stroke-miterlimit:10;}</style><clipPath id="d"><rect class="i" x="5.65016" y=".5" width="92" height="92"/></clipPath><clipPath id="e"><rect class="i" x="5.65016" y=".5" width="92" height="92"/></clipPath></defs><g id="a"/><g id="b"><g id="c"><rect class="j" x=".5" y=".5" width="102.30033" height="98.73418" rx="35" ry="35"/><g class="h"><g class="g"><path d="M54.86016,23.6885c-10.578,0-17.677,6.158-17.677,18.112v8.519c1.038-.495,2.196-.781,3.422-.781,1.241,0,2.412,.293,3.46,.799v-8.537c0-7.752,4.275-11.737,10.795-11.737,6.521,0,10.796,3.985,10.796,11.737v18.62h6.882v-18.62c0-12.026-7.09999-18.112-17.67799-18.112"/><path class="f" d="M40.33176,51.6904c-1.33,0-2.553,.447-3.541,1.193l-6.48-4.427c.143-.508,.225-1.041,.225-1.594,0-3.248-2.644-5.892-5.892-5.892-3.249,0-5.892,2.644-5.892,5.892,0,3.249,2.643,5.891,5.892,5.891,1.33,0,2.554-.448,3.541-1.194l6.48,4.429c-.142,.508-.224,1.041-.224,1.594,0,.552,.082,1.085,.224,1.592l-6.48,4.429c-.987-.746-2.211-1.194-3.541-1.194-3.249,0-5.892,2.642-5.892,5.891s2.643,5.892,5.892,5.892c3.248,0,5.892-2.643,5.892-5.892,0-.552-.082-1.086-.225-1.593l6.48-4.428c.988,.746,2.211,1.193,3.541,1.193,3.249,0,5.892-2.642,5.892-5.89,0-3.249-2.643-5.892-5.892-5.892"/></g></g></g></g></svg>