<?xml version="1.0" standalone="yes"?>
<svg xmlns="http://www.w3.org/2000/svg" width="1001" height="1001">
<path style="fill:#ffffff; stroke:none;" d="M0 0L0 321L1 321C1 150.893 156.398 1 325 1L296 0L230 0L0 0z"/>
<path style="fill:#018bff; stroke:none;" d="M325 0.424377C280.343 6.28796 238.818 10.1099 197 29.3087C168.179 42.5406 141.052 59.2809 117 80C64.6089 125.132 25.6483 186.408 9.65432 254C-0.669382 297.629 0 341.47 0 386L0 535C0 594.078 -4.61155 655.4 3.28241 714C11.2841 773.4 36.045 830.246 73.4491 877C123.471 939.525 196.919 983.298 276 996.565C308.529 1002.02 341.132 1001 374 1001L504 1001L629 1001C658.779 1001 688.475 1002.08 718 997.728C754.644 992.33 791.552 980.857 824 962.861C851.857 947.412 878.245 929.48 901 906.996C950.658 857.929 984.003 794.682 996.386 726C1002.75 690.698 1001 654.718 1001 619L1001 463C1001 403.761 1006.26 341.673 997.573 283C990.057 232.223 970.062 184.128 940.974 142C925.911 120.183 907.79 100.517 888 82.9498C839.366 39.7792 777.371 11.9539 713 3.28241C647.349 -5.56146 578.199 0 512 0L388 0C367.436 0 345.386 -2.25226 325 0.424377z"/>
<path style="fill:#ffffff; stroke:none;" d="M677 0L677 1C801.172 1 919.112 82.1898 970.309 194C986.73 229.864 1000 271.157 1000 311L1001 311L1001 0L677 0z"/>
<path style="fill:#50afff; stroke:none;" d="M480 223L480 224L485 224L480 223z"/>
<path style="fill:#86c7ff; stroke:none;" d="M485 223L485 224L489 224L485 223z"/>
<path style="fill:#50afff; stroke:none;" d="M489 223L489 224L495 224L489 223M470.667 224.333L471.333 224.667L470.667 224.333z"/>
<path style="fill:#86c7ff; stroke:none;" d="M472.667 224.333L473.333 224.667L472.667 224.333z"/>
<path style="fill:#b8dfff; stroke:none;" d="M474.667 224.333L475.333 224.667L474.667 224.333z"/>
<path style="fill:#ffffff; stroke:none;" d="M476 224.425C433.745 230.177 396.457 256.544 382.516 298C376.212 316.745 377 335.515 377 355L377 426C377 493.989 376.322 562.098 377.985 630C378.83 664.469 372.715 701.995 384.695 735C402.223 783.29 452.9 811.886 503 805.714C547.088 800.282 582.767 768.167 595.279 726C604.148 696.113 599 659.912 599 629C599 564.643 598 500.288 598 436L598 358C598 338.396 598.935 318.884 592.645 300C576.799 252.425 526.809 217.509 476 224.425z"/>
<path style="fill:#b8dfff; stroke:none;" d="M498.667 224.333L499.333 224.667L498.667 224.333z"/>
<path style="fill:#86c7ff; stroke:none;" d="M500.667 224.333L501.333 224.667L500.667 224.333z"/>
<path style="fill:#50afff; stroke:none;" d="M502.667 224.333L503.333 224.667L502.667 224.333M465 225L466 226L465 225z"/>
<path style="fill:#86c7ff; stroke:none;" d="M466 225L467 226L466 225z"/>
<path style="fill:#b8dfff; stroke:none;" d="M467.667 225.333L468.333 225.667L467.667 225.333M506 225L507 226L506 225z"/>
<path style="fill:#86c7ff; stroke:none;" d="M507 225L508 226L507 225z"/>
<path style="fill:#50afff; stroke:none;" d="M508 225L509 226L508 225M460.667 226.333L461.333 226.667L460.667 226.333z"/>
<path style="fill:#86c7ff; stroke:none;" d="M462 226L463 227L462 226z"/>
<path style="fill:#b8dfff; stroke:none;" d="M511 226L512 227L511 226z"/>
<path style="fill:#86c7ff; stroke:none;" d="M512 226L513 227L512 226z"/>
<path style="fill:#50afff; stroke:none;" d="M513 226L514 227L513 226M457 227L458 228L457 227z"/>
<path style="fill:#86c7ff; stroke:none;" d="M458 227L459 228L458 227z"/>
<path style="fill:#b8dfff; stroke:none;" d="M515 227L516 228L515 227z"/>
<path style="fill:#86c7ff; stroke:none;" d="M516 227L517 228L516 227z"/>
<path style="fill:#50afff; stroke:none;" d="M517 227L518 228L517 227M453 228L454 229L453 228z"/>
<path style="fill:#86c7ff; stroke:none;" d="M454 228L455 229L454 228z"/>
<path style="fill:#b8dfff; stroke:none;" d="M455 228L456 229L455 228z"/>
<path style="fill:#86c7ff; stroke:none;" d="M519 228L520 229L519 228z"/>
<path style="fill:#50afff; stroke:none;" d="M520 228L521 229L520 228M450 229L451 230L450 229z"/>
<path style="fill:#86c7ff; stroke:none;" d="M451 229L452 230L451 229M522 229L523 230L522 229z"/>
<path style="fill:#50afff; stroke:none;" d="M523 229L524 230L523 229z"/>
<path style="fill:#86c7ff; stroke:none;" d="M448 230L449 231L448 230z"/>
<path style="fill:#b8dfff; stroke:none;" d="M449 230L450 231L449 230z"/>
<path style="fill:#86c7ff; stroke:none;" d="M525 230L526 231L525 230z"/>
<path style="fill:#50afff; stroke:none;" d="M526 230L527 231L526 230M445 231L446 232L445 231z"/>
<path style="fill:#b8dfff; stroke:none;" d="M446 231L447 232L446 231M527 231L528 232L527 231z"/>
<path style="fill:#50afff; stroke:none;" d="M528 231L529 232L528 231z"/>
<path style="fill:#86c7ff; stroke:none;" d="M443 232L444 233L443 232M530 232L531 233L530 232M441 233L442 234L441 233z"/>
<path style="fill:#b8dfff; stroke:none;" d="M532 233L533 234L532 233z"/>
<path style="fill:#50afff; stroke:none;" d="M533 233L534 234L533 233z"/>
<path style="fill:#86c7ff; stroke:none;" d="M439 234L440 235L439 234z"/>
<path style="fill:#b8dfff; stroke:none;" d="M534 234L535 235L534 234z"/>
<path style="fill:#50afff; stroke:none;" d="M535 234L536 235L535 234z"/>
<path style="fill:#86c7ff; stroke:none;" d="M437 235L438 236L437 235z"/>
<path style="fill:#50afff; stroke:none;" d="M537 235L538 236L537 235z"/>
<path style="fill:#86c7ff; stroke:none;" d="M435 236L436 237L435 236z"/>
<path style="fill:#b8dfff; stroke:none;" d="M538 236L539 237L538 236z"/>
<path style="fill:#50afff; stroke:none;" d="M539 236L540 237L539 236z"/>
<path style="fill:#86c7ff; stroke:none;" d="M433 237L434 238L433 237z"/>
<path style="fill:#b8dfff; stroke:none;" d="M540 237L541 238L540 237z"/>
<path style="fill:#50afff; stroke:none;" d="M541 237L542 238L541 237z"/>
<path style="fill:#86c7ff; stroke:none;" d="M431 238L432 239L431 238M542 238L543 239L542 238z"/>
<path style="fill:#50afff; stroke:none;" d="M429 239L430 240L429 239z"/>
<path style="fill:#b8dfff; stroke:none;" d="M430 239L431 240L430 239z"/>
<path style="fill:#86c7ff; stroke:none;" d="M544 239L545 240L544 239M428 240L429 241L428 240z"/>
<path style="fill:#b8dfff; stroke:none;" d="M545 240L546 241L545 240z"/>
<path style="fill:#50afff; stroke:none;" d="M546 240L547 241L546 240M426 241L427 242L426 241z"/>
<path style="fill:#86c7ff; stroke:none;" d="M547 241L548 242L547 241z"/>
<path style="fill:#b8dfff; stroke:none;" d="M425 242L426 243L425 242z"/>
<path style="fill:#50afff; stroke:none;" d="M549 242L550 243L549 242M423 243L424 244L423 243z"/>
<path style="fill:#86c7ff; stroke:none;" d="M550 243L551 244L550 243M422 244L423 245L422 244z"/>
<path style="fill:#b8dfff; stroke:none;" d="M551 244L552 245L551 244z"/>
<path style="fill:#50afff; stroke:none;" d="M552 244L553 245L552 244M420 245L421 246L420 245z"/>
<path style="fill:#b8dfff; stroke:none;" d="M421 245L422 246L421 245z"/>
<path style="fill:#50afff; stroke:none;" d="M553 245L554 246L553 245M419 246L420 247L419 246z"/>
<path style="fill:#86c7ff; stroke:none;" d="M554 246L555 247L554 246M418 247L419 248L418 247z"/>
<path style="fill:#b8dfff; stroke:none;" d="M555 247L556 248L555 247M417 248L418 249L417 248z"/>
<path style="fill:#50afff; stroke:none;" d="M557 248L558 249L557 248M415 249L416 250L415 249M558 249L559 250L558 249M414 250L415 251L414 250z"/>
<path style="fill:#86c7ff; stroke:none;" d="M559 250L560 251L559 250z"/>
<path style="fill:#50afff; stroke:none;" d="M413 251L414 252L413 251z"/>
<path style="fill:#86c7ff; stroke:none;" d="M560 251L561 252L560 251M412 252L413 253L412 252z"/>
<path style="fill:#b8dfff; stroke:none;" d="M561 252L562 253L561 252z"/>
<path style="fill:#86c7ff; stroke:none;" d="M411 253L412 254L411 253z"/>
<path style="fill:#b8dfff; stroke:none;" d="M562 253L563 254L562 253z"/>
<path style="fill:#86c7ff; stroke:none;" d="M410 254L411 255L410 254z"/>
<path style="fill:#b8dfff; stroke:none;" d="M563 254L564 255L563 254z"/>
<path style="fill:#86c7ff; stroke:none;" d="M409 255L410 256L409 255z"/>
<path style="fill:#50afff; stroke:none;" d="M565 255L566 256L565 255z"/>
<path style="fill:#86c7ff; stroke:none;" d="M408 256L409 257L408 256z"/>
<path style="fill:#50afff; stroke:none;" d="M566 256L567 257L566 256z"/>
<path style="fill:#86c7ff; stroke:none;" d="M407 257L408 258L407 257M406 258L407 259L406 258z"/>
<path style="fill:#b8dfff; stroke:none;" d="M567 258L568 259L567 258z"/>
<path style="fill:#86c7ff; stroke:none;" d="M405 259L406 260L405 259z"/>
<path style="fill:#b8dfff; stroke:none;" d="M568 259L569 260L568 259z"/>
<path style="fill:#86c7ff; stroke:none;" d="M404 260L405 261L404 260z"/>
<path style="fill:#b8dfff; stroke:none;" d="M569 260L570 261L569 260z"/>
<path style="fill:#50afff; stroke:none;" d="M403 261L404 262L403 261z"/>
<path style="fill:#86c7ff; stroke:none;" d="M570 261L571 262L570 261z"/>
<path style="fill:#50afff; stroke:none;" d="M402 262L403 263L402 262z"/>
<path style="fill:#86c7ff; stroke:none;" d="M571 262L572 263L571 262z"/>
<path style="fill:#50afff; stroke:none;" d="M572 263L573 264L572 263z"/>
<path style="fill:#b8dfff; stroke:none;" d="M401 264L402 265L401 264z"/>
<path style="fill:#50afff; stroke:none;" d="M573 264L574 265L573 264z"/>
<path style="fill:#b8dfff; stroke:none;" d="M400 265L401 266L400 265z"/>
<path style="fill:#86c7ff; stroke:none;" d="M399 266L400 267L399 266z"/>
<path style="fill:#b8dfff; stroke:none;" d="M574 266L575 267L574 266z"/>
<path style="fill:#50afff; stroke:none;" d="M398 267L399 268L398 267z"/>
<path style="fill:#86c7ff; stroke:none;" d="M575 267L576 268L575 267z"/>
<path style="fill:#50afff; stroke:none;" d="M576 268L577 269L576 268z"/>
<path style="fill:#b8dfff; stroke:none;" d="M397 269L398 270L397 269z"/>
<path style="fill:#50afff; stroke:none;" d="M577 269L578 270L577 269z"/>
<path style="fill:#86c7ff; stroke:none;" d="M396 270L397 271L396 270z"/>
<path style="fill:#b8dfff; stroke:none;" d="M577 270L578 271L577 270z"/>
<path style="fill:#50afff; stroke:none;" d="M395 271L396 272L395 271z"/>
<path style="fill:#86c7ff; stroke:none;" d="M578 271L579 272L578 271z"/>
<path style="fill:#b8dfff; stroke:none;" d="M395 272L396 273L395 272z"/>
<path style="fill:#50afff; stroke:none;" d="M579 272L580 273L579 272z"/>
<path style="fill:#86c7ff; stroke:none;" d="M394 273L395 274L394 273z"/>
<path style="fill:#50afff; stroke:none;" d="M393 274L394 275L393 274z"/>
<path style="fill:#86c7ff; stroke:none;" d="M580 274L581 275L580 274z"/>
<path style="fill:#b8dfff; stroke:none;" d="M393 275L394 276L393 275z"/>
<path style="fill:#50afff; stroke:none;" d="M581 275L582 276L581 275z"/>
<path style="fill:#86c7ff; stroke:none;" d="M392 276L393 277L392 276z"/>
<path style="fill:#b8dfff; stroke:none;" d="M581 276L582 277L581 276z"/>
<path style="fill:#86c7ff; stroke:none;" d="M582 277L583 278L582 277M391 278L392 279L391 278z"/>
<path style="fill:#50afff; stroke:none;" d="M390 279L391 280L390 279z"/>
<path style="fill:#86c7ff; stroke:none;" d="M583 279L584 280L583 279z"/>
<path style="fill:#b8dfff; stroke:none;" d="M390 280L391 281L390 280z"/>
<path style="fill:#50afff; stroke:none;" d="M584 280L585 281L584 280M389 281L390 282L389 281z"/>
<path style="fill:#b8dfff; stroke:none;" d="M584 281L585 282L584 281z"/>
<path style="fill:#50afff; stroke:none;" d="M585 282L586 283L585 282M388 283L389 284L388 283z"/>
<path style="fill:#b8dfff; stroke:none;" d="M585 283L586 284L585 283z"/>
<path style="fill:#50afff; stroke:none;" d="M586 284L587 285L586 284M387 285L388 286L387 285M587 286L588 287L587 286M386 287L387 288L386 287z"/>
<path style="fill:#b8dfff; stroke:none;" d="M587 287L588 288L587 287z"/>
<path style="fill:#50afff; stroke:none;" d="M588 288L589 289L588 288M385 289L386 290L385 289z"/>
<path style="fill:#b8dfff; stroke:none;" d="M588 289L589 290L588 289M385 290L386 291L385 290z"/>
<path style="fill:#86c7ff; stroke:none;" d="M589 291L590 292L589 291M384 292L385 293L384 292z"/>
<path style="fill:#50afff; stroke:none;" d="M590 293L591 294L590 293M383 294L384 295L383 294z"/>
<path style="fill:#b8dfff; stroke:none;" d="M590 294L591 295L590 294M383 295L384 296L383 295z"/>
<path style="fill:#50afff; stroke:none;" d="M591 295L592 296L591 295z"/>
<path style="fill:#86c7ff; stroke:none;" d="M591 296L592 297L591 296M382 297L383 298L382 297M480.667 298.333L481.333 298.667L480.667 298.333z"/>
<path style="fill:#50afff; stroke:none;" d="M482.667 298.333L483.333 298.667L482.667 298.333z"/>
<path style="fill:#018bff; stroke:none;" d="M484 298.468C446.439 302.213 454.409 357.511 492 352.815C525.337 348.65 517.265 295.15 484 298.468z"/>
<path style="fill:#50afff; stroke:none;" d="M488 298L488 299L491 299L488 298z"/>
<path style="fill:#86c7ff; stroke:none;" d="M491 298L492 299L491 298z"/>
<path style="fill:#b8dfff; stroke:none;" d="M492 298L493 299L492 298z"/>
<path style="fill:#50afff; stroke:none;" d="M592 298L593 299L592 298M381 299L382 300L381 299z"/>
<path style="fill:#b8dfff; stroke:none;" d="M476 299L477 300L476 299z"/>
<path style="fill:#86c7ff; stroke:none;" d="M477 299L478 300L477 299z"/>
<path style="fill:#50afff; stroke:none;" d="M494 299L495 300L494 299z"/>
<path style="fill:#86c7ff; stroke:none;" d="M495 299L496 300L495 299M592 299L593 300L592 299M381 300L382 301L381 300M474 300L475 301L474 300z"/>
<path style="fill:#50afff; stroke:none;" d="M497 300L498 301L497 300z"/>
<path style="fill:#b8dfff; stroke:none;" d="M381 301L382 302L381 301z"/>
<path style="fill:#86c7ff; stroke:none;" d="M472 301L473 302L472 301z"/>
<path style="fill:#50afff; stroke:none;" d="M499 301L500 302L499 301M593 301L594 302L593 301z"/>
<path style="fill:#b8dfff; stroke:none;" d="M470 302L471 303L470 302z"/>
<path style="fill:#50afff; stroke:none;" d="M471 302L472 303L471 302z"/>
<path style="fill:#86c7ff; stroke:none;" d="M501 302L502 303L501 302M593 302L594 303L593 302M380 303L381 304L380 303M469 303L470 304L469 303z"/>
<path style="fill:#50afff; stroke:none;" d="M502 303L503 304L502 303z"/>
<path style="fill:#b8dfff; stroke:none;" d="M380 304L381 305L380 304z"/>
<path style="fill:#50afff; stroke:none;" d="M468 304L469 305L468 304z"/>
<path style="fill:#b8dfff; stroke:none;" d="M504 304L505 305L504 304z"/>
<path style="fill:#50afff; stroke:none;" d="M594 304L595 305L594 304M467 305L468 306L467 305z"/>
<path style="fill:#b8dfff; stroke:none;" d="M505 305L506 306L505 305z"/>
<path style="fill:#86c7ff; stroke:none;" d="M594 305L595 306L594 305z"/>
<path style="fill:#50afff; stroke:none;" d="M379 306L380 307L379 306M466 306L467 307L466 306z"/>
<path style="fill:#86c7ff; stroke:none;" d="M506 306L507 307L506 306z"/>
<path style="fill:#b8dfff; stroke:none;" d="M594 306L595 307L594 306z"/>
<path style="fill:#86c7ff; stroke:none;" d="M379 307L380 308L379 307z"/>
<path style="fill:#50afff; stroke:none;" d="M465 307L466 308L465 307z"/>
<path style="fill:#b8dfff; stroke:none;" d="M507 307L508 308L507 307M379 308L380 309L379 308z"/>
<path style="fill:#50afff; stroke:none;" d="M464 308L465 309L464 308M595 308L596 309L595 308z"/>
<path style="fill:#86c7ff; stroke:none;" d="M463 309L464 310L463 309z"/>
<path style="fill:#50afff; stroke:none;" d="M508 309L509 310L508 309z"/>
<path style="fill:#86c7ff; stroke:none;" d="M595 309L596 310L595 309z"/>
<path style="fill:#50afff; stroke:none;" d="M378 310L379 311L378 310z"/>
<path style="fill:#86c7ff; stroke:none;" d="M509 310L510 311L509 310z"/>
<path style="fill:#b8dfff; stroke:none;" d="M595 310L596 311L595 310z"/>
<path style="fill:#86c7ff; stroke:none;" d="M378.333 311.667L378.667 312.333L378.333 311.667z"/>
<path style="fill:#50afff; stroke:none;" d="M462 311L463 312L462 311z"/>
<path style="fill:#b8dfff; stroke:none;" d="M461 312L462 313L461 312z"/>
<path style="fill:#50afff; stroke:none;" d="M510 312L511 313L510 312z"/>
<path style="fill:#b8dfff; stroke:none;" d="M378 313L379 314L378 313z"/>
<path style="fill:#50afff; stroke:none;" d="M461 313L462 314L461 313z"/>
<path style="fill:#b8dfff; stroke:none;" d="M511 313L512 314L511 313z"/>
<path style="fill:#50afff; stroke:none;" d="M596 313L597 314L596 313z"/>
<path style="fill:#b8dfff; stroke:none;" d="M460 314L461 315L460 314z"/>
<path style="fill:#50afff; stroke:none;" d="M511 314L512 315L511 314z"/>
<path style="fill:#86c7ff; stroke:none;" d="M596 314L597 315L596 314z"/>
<path style="fill:#50afff; stroke:none;" d="M377.333 315.667L377.667 316.333L377.333 315.667M460 315L461 316L460 315z"/>
<path style="fill:#b8dfff; stroke:none;" d="M596 315L597 316L596 315z"/>
<path style="fill:#86c7ff; stroke:none;" d="M512 316L513 317L512 316M377 317L378 318L377 317M459 317L460 318L459 317z"/>
<path style="fill:#b8dfff; stroke:none;" d="M377.333 318.667L377.667 319.333L377.333 318.667z"/>
<path style="fill:#50afff; stroke:none;" d="M459 318L460 319L459 318M597.333 318.667L597.667 319.333L597.333 318.667z"/>
<path style="fill:#86c7ff; stroke:none;" d="M513 319L514 320L513 319z"/>
<path style="fill:#b8dfff; stroke:none;" d="M458.333 320.667L458.667 321.333L458.333 320.667z"/>
<path style="fill:#50afff; stroke:none;" d="M513.333 320.667L513.667 321.333L513.333 320.667z"/>
<path style="fill:#86c7ff; stroke:none;" d="M597.333 320.667L597.667 321.333L597.333 320.667z"/>
<path style="fill:#50afff; stroke:none;" d="M376.333 322.667L376.667 323.333L376.333 322.667z"/>
<path style="fill:#86c7ff; stroke:none;" d="M458.333 322.667L458.667 323.333L458.333 322.667z"/>
<path style="fill:#b8dfff; stroke:none;" d="M597.333 322.667L597.667 323.333L597.333 322.667z"/>
<path style="fill:#86c7ff; stroke:none;" d="M376 324L376 327L377 327L376 324z"/>
<path style="fill:#50afff; stroke:none;" d="M458 324L458 328L459 328L458 324z"/>
<path style="fill:#b8dfff; stroke:none;" d="M376 327L376 405L377 405L377 351L376 327z"/>
<path style="fill:#50afff; stroke:none;" d="M598 327L598 333L599 333L598 327z"/>
<path style="fill:#86c7ff; stroke:none;" d="M458.333 328.667L458.667 329.333L458.333 328.667z"/>
<path style="fill:#b8dfff; stroke:none;" d="M458.333 330.667L458.667 331.333L458.333 330.667z"/>
<path style="fill:#50afff; stroke:none;" d="M513 330L514 331L513 330z"/>
<path style="fill:#86c7ff; stroke:none;" d="M513.333 331.667L513.667 332.333L513.333 331.667z"/>
<path style="fill:#50afff; stroke:none;" d="M459 333L460 334L459 333z"/>
<path style="fill:#86c7ff; stroke:none;" d="M598 333L598 405L599 405L599 356L598 333M459 334L460 335L459 334z"/>
<path style="fill:#50afff; stroke:none;" d="M512 334L513 335L512 334z"/>
<path style="fill:#86c7ff; stroke:none;" d="M512 335L513 336L512 335z"/>
<path style="fill:#50afff; stroke:none;" d="M460 336L461 337L460 336z"/>
<path style="fill:#b8dfff; stroke:none;" d="M460 337L461 338L460 337z"/>
<path style="fill:#50afff; stroke:none;" d="M511 337L512 338L511 337M461 338L462 339L461 338z"/>
<path style="fill:#b8dfff; stroke:none;" d="M511 338L512 339L511 338M461 339L462 340L461 339z"/>
<path style="fill:#50afff; stroke:none;" d="M510 339L511 340L510 339M462 340L463 341L462 340z"/>
<path style="fill:#86c7ff; stroke:none;" d="M509 341L510 342L509 341z"/>
<path style="fill:#b8dfff; stroke:none;" d="M463 342L464 343L463 342z"/>
<path style="fill:#50afff; stroke:none;" d="M508 342L509 343L508 342z"/>
<path style="fill:#86c7ff; stroke:none;" d="M464 343L465 344L464 343z"/>
<path style="fill:#50afff; stroke:none;" d="M465 344L466 345L465 344z"/>
<path style="fill:#b8dfff; stroke:none;" d="M507 344L508 345L507 344z"/>
<path style="fill:#86c7ff; stroke:none;" d="M626 344L627 345L626 344z"/>
<path style="fill:#50afff; stroke:none;" d="M466 345L467 346L466 345z"/>
<path style="fill:#b8dfff; stroke:none;" d="M506 345L507 346L506 345M626 345L626 404L627 404C627 385.384 623.686 363.119 628 345L626 345z"/>
<path style="fill:#50afff; stroke:none;" d="M467 346L468 347L467 346z"/>
<path style="fill:#b8dfff; stroke:none;" d="M505 346L506 347L505 346z"/>
<path style="fill:#ffffff; stroke:none;" d="M627 346L627 454L627 483C627 486.762 626.031 492.191 628.028 495.561C634.508 506.497 653.558 515.706 664 522.667C700.414 546.943 744.248 571.543 789 574.036C804.442 574.895 837.613 576.199 846.248 558.96C848.822 553.822 839.058 548.018 836 544.996C823.156 532.305 810.387 519.283 797 507.17C754.993 469.161 716.007 427.839 674 389.83C663.785 380.588 653.747 370.731 644 361C638.795 355.803 633.731 349.139 627 346z"/>
<path style="fill:#50afff; stroke:none;" d="M629 346L630 347L629 346M468 347L469 348L468 347z"/>
<path style="fill:#b8dfff; stroke:none;" d="M504 347L505 348L504 347z"/>
<path style="fill:#50afff; stroke:none;" d="M630 347L631 348L630 347z"/>
<path style="fill:#86c7ff; stroke:none;" d="M469 348L470 349L469 348z"/>
<path style="fill:#50afff; stroke:none;" d="M502 348L503 349L502 348M631 348L632 349L631 348M471 349L472 350L471 349z"/>
<path style="fill:#b8dfff; stroke:none;" d="M501 349L502 350L501 349z"/>
<path style="fill:#50afff; stroke:none;" d="M632 349L633 350L632 349z"/>
<path style="fill:#b8dfff; stroke:none;" d="M472 350L473 351L472 350z"/>
<path style="fill:#86c7ff; stroke:none;" d="M499 350L500 351L499 350z"/>
<path style="fill:#50afff; stroke:none;" d="M633 350L634 351L633 350z"/>
<path style="fill:#86c7ff; stroke:none;" d="M474 351L475 352L474 351z"/>
<path style="fill:#50afff; stroke:none;" d="M475 351L476 352L475 351z"/>
<path style="fill:#86c7ff; stroke:none;" d="M497 351L498 352L497 351z"/>
<path style="fill:#50afff; stroke:none;" d="M634 351L635 352L634 351z"/>
<path style="fill:#86c7ff; stroke:none;" d="M477 352L478 353L477 352z"/>
<path style="fill:#50afff; stroke:none;" d="M478 352L479 353L478 352M494 352L495 353L494 352z"/>
<path style="fill:#b8dfff; stroke:none;" d="M495 352L496 353L495 352z"/>
<path style="fill:#50afff; stroke:none;" d="M635 352L636 353L635 352z"/>
<path style="fill:#b8dfff; stroke:none;" d="M480 353L481 354L480 353z"/>
<path style="fill:#86c7ff; stroke:none;" d="M481 353L482 354L481 353z"/>
<path style="fill:#50afff; stroke:none;" d="M482 353L482 354L490 354L482 353z"/>
<path style="fill:#86c7ff; stroke:none;" d="M490.667 353.333L491.333 353.667L490.667 353.333z"/>
<path style="fill:#b8dfff; stroke:none;" d="M492 353L493 354L492 353z"/>
<path style="fill:#50afff; stroke:none;" d="M636 353L637 354L636 353M637 354L638 355L637 354M638 355L639 356L638 355M639 356L640 357L639 356z"/>
<path style="fill:#86c7ff; stroke:none;" d="M640 357L641 358L640 357z"/>
<path style="fill:#b8dfff; stroke:none;" d="M641 358L642 359L641 358M642 359L643 360L642 359M643 360L644 361L643 360M644 361L645 362L644 361M645 362L646 363L645 362M646 363L647 364L646 363M647 364L648 365L647 364M648 365L649 366L648 365M649 366L650 367L649 366M650 367L651 368L650 367M651 368L652 369L651 368z"/>
<path style="fill:#50afff; stroke:none;" d="M653 369L654 370L653 369M654 370L655 371L654 370M655 371L656 372L655 371M656 372L657 373L656 372M657 373L658 374L657 373M658 374L659 375L658 374M659 375L660 376L659 375M660 376L661 377L660 376M661 377L662 378L661 377M662 378L663 379L662 378M663 379L664 380L663 379z"/>
<path style="fill:#b8dfff; stroke:none;" d="M664 380L665 381L664 380M665 381L666 382L665 381M666 382L667 383L666 382M667 383L668 384L667 383M668 384L669 385L668 384M669 385L670 386L669 385M670 386L671 387L670 386M671 387L672 388L671 387M672 388L673 389L672 388M673 389L674 390L673 389M674 390L675 391L674 390M675 391L676 392L675 391z"/>
<path style="fill:#50afff; stroke:none;" d="M676 391L677 392L676 391M677 392L678 393L677 392M678 393L679 394L678 393M679 394L680 395L679 394M680 395L681 396L680 395M681 396L682 397L681 396M682 397L683 398L682 397M683 398L684 399L683 398M684 399L685 400L684 399M685 400L686 401L685 400M686 401L687 402L686 401z"/>
<path style="fill:#86c7ff; stroke:none;" d="M687 402L688 403L687 402z"/>
<path style="fill:#b8dfff; stroke:none;" d="M688 403L689 404L688 403z"/>
<path style="fill:#86c7ff; stroke:none;" d="M626 404L626 477L627 477L627 427L626 404z"/>
<path style="fill:#b8dfff; stroke:none;" d="M689 404L690 405L689 404z"/>
<path style="fill:#86c7ff; stroke:none;" d="M376 405L376 478L377 478L377 428L376 405z"/>
<path style="fill:#b8dfff; stroke:none;" d="M598 405L598 477L599 477L599 428L598 405M690 405L691 406L690 405M691 406L692 407L691 406M692 407L693 408L692 407M693 408L694 409L693 408M694 409L695 410L694 409M695 410L696 411L695 410M696 411L697 412L696 411M697 412L698 413L697 412M698 413L699 414L698 413z"/>
<path style="fill:#50afff; stroke:none;" d="M700 414L701 415L700 414M701 415L702 416L701 415M702 416L703 417L702 416M703 417L704 418L703 417M704 418L705 419L704 418M705 419L706 420L705 419M706 420L707 421L706 420M707 421L708 422L707 421M708 422L709 423L708 422M709 423L710 424L709 423M710 424L711 425L710 424z"/>
<path style="fill:#86c7ff; stroke:none;" d="M711 425L712 426L711 425z"/>
<path style="fill:#b8dfff; stroke:none;" d="M712 426L713 427L712 426M713 427L714 428L713 427M714 428L715 429L714 428M715 429L716 430L715 429M716 430L717 431L716 430M717 431L718 432L717 431M718 432L719 433L718 432M719 433L720 434L719 433M720 434L721 435L720 434M721 435L722 436L721 435M722 436L723 437L722 436z"/>
<path style="fill:#50afff; stroke:none;" d="M724 437L725 438L724 437M725 438L726 439L725 438M726 439L727 440L726 439M727 440L728 441L727 440M728 441L729 442L728 441M729 442L730 443L729 442M730 443L731 444L730 443M731 444L732 445L731 444M732 445L733 446L732 445M733 446L734 447L733 446M734 447L735 448L734 447z"/>
<path style="fill:#86c7ff; stroke:none;" d="M735 448L736 449L735 448z"/>
<path style="fill:#b8dfff; stroke:none;" d="M736 449L737 450L736 449M737 450L738 451L737 450M738 451L739 452L738 451M739 452L740 453L739 452M740 453L741 454L740 453M741 454L742 455L741 454M742 455L743 456L742 455M743 456L744 457L743 456M744 457L745 458L744 457M745 458L746 459L745 458M746 459L747 460L746 459z"/>
<path style="fill:#50afff; stroke:none;" d="M748 460L749 461L748 460M749 461L750 462L749 461M750 462L751 463L750 462M751 463L752 464L751 463M752 464L753 465L752 464M753 465L754 466L753 465M754 466L755 467L754 466M755 467L756 468L755 467M756 468L757 469L756 468M757 469L758 470L757 469M758 470L759 471L758 470z"/>
<path style="fill:#b8dfff; stroke:none;" d="M759 471L760 472L759 471M760 472L761 473L760 472M761 473L762 474L761 473M762 474L763 475L762 474M763 475L764 476L763 475M764 476L765 477L764 476z"/>
<path style="fill:#50afff; stroke:none;" d="M626 477L626 495L627 495L626 477z"/>
<path style="fill:#b8dfff; stroke:none;" d="M765 477L766 478L765 477z"/>
<path style="fill:#50afff; stroke:none;" d="M376 478L376 551L377 551L377 501L376 478z"/>
<path style="fill:#b8dfff; stroke:none;" d="M766 478L767 479L766 478M767 479L768 480L767 479M768 480L769 481L768 480M769 481L770 482L769 481M770 482L771 483L770 482z"/>
<path style="fill:#50afff; stroke:none;" d="M771 482L772 483L771 482M772 483L773 484L772 483M773 484L774 485L773 484M774 485L775 486L774 485M775 486L776 487L775 486M776 487L777 488L776 487M777 488L778 489L777 488M778 489L779 490L778 489M779 490L780 491L779 490M780 491L781 492L780 491M781 492L782 493L781 492M782 493L783 494L782 493z"/>
<path style="fill:#b8dfff; stroke:none;" d="M783 494L784 495L783 494M784 495L785 496L784 495M628 496L629 497L628 496M785 496L786 497L785 496M629 497L630 498L629 497M786 497L787 498L786 497z"/>
<path style="fill:#50afff; stroke:none;" d="M630 498L631 499L630 498z"/>
<path style="fill:#b8dfff; stroke:none;" d="M787 498L788 499L787 498z"/>
<path style="fill:#50afff; stroke:none;" d="M631 499L632 500L631 499z"/>
<path style="fill:#b8dfff; stroke:none;" d="M788 499L789 500L788 499M633 500L634 501L633 500M789 500L790 501L789 500z"/>
<path style="fill:#86c7ff; stroke:none;" d="M634 501L635 502L634 501z"/>
<path style="fill:#b8dfff; stroke:none;" d="M790 501L791 502L790 501z"/>
<path style="fill:#50afff; stroke:none;" d="M635 502L636 503L635 502z"/>
<path style="fill:#b8dfff; stroke:none;" d="M791 502L792 503L791 502M637 503L638 504L637 503M792 503L793 504L792 503M638 504L639 505L638 504M793 504L794 505L793 504z"/>
<path style="fill:#50afff; stroke:none;" d="M639 505L640 506L639 505M795 505L796 506L795 505M640 506L641 507L640 506z"/>
<path style="fill:#b8dfff; stroke:none;" d="M641 506L642 507L641 506z"/>
<path style="fill:#50afff; stroke:none;" d="M796 506L797 507L796 506z"/>
<path style="fill:#b8dfff; stroke:none;" d="M642 507L643 508L642 507z"/>
<path style="fill:#50afff; stroke:none;" d="M797 507L798 508L797 507M643 508L644 509L643 508M798 508L799 509L798 508M644 509L645 510L644 509z"/>
<path style="fill:#b8dfff; stroke:none;" d="M645 509L646 510L645 509z"/>
<path style="fill:#50afff; stroke:none;" d="M799 509L800 510L799 509z"/>
<path style="fill:#b8dfff; stroke:none;" d="M646 510L647 511L646 510z"/>
<path style="fill:#50afff; stroke:none;" d="M800 510L801 511L800 510M647 511L648 512L647 511M801 511L802 512L801 511z"/>
<path style="fill:#b8dfff; stroke:none;" d="M649 512L650 513L649 512z"/>
<path style="fill:#50afff; stroke:none;" d="M802 512L803 513L802 512z"/>
<path style="fill:#86c7ff; stroke:none;" d="M650 513L651 514L650 513z"/>
<path style="fill:#50afff; stroke:none;" d="M803 513L804 514L803 513M651 514L652 515L651 514M804 514L805 515L804 514z"/>
<path style="fill:#b8dfff; stroke:none;" d="M653 515L654 516L653 515z"/>
<path style="fill:#50afff; stroke:none;" d="M805 515L806 516L805 515M654 516L655 517L654 516z"/>
<path style="fill:#86c7ff; stroke:none;" d="M806 516L807 517L806 516z"/>
<path style="fill:#b8dfff; stroke:none;" d="M656 517L657 518L656 517M807 517L808 518L807 517z"/>
<path style="fill:#86c7ff; stroke:none;" d="M657 518L658 519L657 518z"/>
<path style="fill:#b8dfff; stroke:none;" d="M808 518L809 519L808 518z"/>
<path style="fill:#50afff; stroke:none;" d="M658 519L659 520L658 519z"/>
<path style="fill:#b8dfff; stroke:none;" d="M659 519L660 520L659 519M809 519L810 520L809 519z"/>
<path style="fill:#86c7ff; stroke:none;" d="M660 520L661 521L660 520z"/>
<path style="fill:#b8dfff; stroke:none;" d="M810 520L811 521L810 520z"/>
<path style="fill:#50afff; stroke:none;" d="M661 521L662 522L661 521z"/>
<path style="fill:#b8dfff; stroke:none;" d="M662 521L663 522L662 521M811 521L812 522L811 521z"/>
<path style="fill:#86c7ff; stroke:none;" d="M663 522L664 523L663 522z"/>
<path style="fill:#b8dfff; stroke:none;" d="M812 522L813 523L812 522z"/>
<path style="fill:#50afff; stroke:none;" d="M664 523L665 524L664 523z"/>
<path style="fill:#b8dfff; stroke:none;" d="M665 523L666 524L665 523M813 523L814 524L813 523z"/>
<path style="fill:#86c7ff; stroke:none;" d="M666 524L667 525L666 524z"/>
<path style="fill:#b8dfff; stroke:none;" d="M814 524L815 525L814 524z"/>
<path style="fill:#50afff; stroke:none;" d="M667 525L668 526L667 525z"/>
<path style="fill:#b8dfff; stroke:none;" d="M668 525L669 526L668 525M815 525L816 526L815 525z"/>
<path style="fill:#86c7ff; stroke:none;" d="M669 526L670 527L669 526z"/>
<path style="fill:#b8dfff; stroke:none;" d="M816 526L817 527L816 526M671 527L672 528L671 527M817 527L818 528L817 527z"/>
<path style="fill:#86c7ff; stroke:none;" d="M672 528L673 529L672 528z"/>
<path style="fill:#50afff; stroke:none;" d="M819 528L820 529L819 528z"/>
<path style="fill:#b8dfff; stroke:none;" d="M674 529L675 530L674 529z"/>
<path style="fill:#50afff; stroke:none;" d="M820 529L821 530L820 529M675 530L676 531L675 530M821 530L822 531L821 530z"/>
<path style="fill:#86c7ff; stroke:none;" d="M677 531L678 532L677 531z"/>
<path style="fill:#50afff; stroke:none;" d="M822 531L823 532L822 531M678 532L679 533L678 532z"/>
<path style="fill:#b8dfff; stroke:none;" d="M679 532L680 533L679 532z"/>
<path style="fill:#50afff; stroke:none;" d="M823 532L824 533L823 532M680 533L681 534L680 533M824 533L825 534L824 533z"/>
<path style="fill:#86c7ff; stroke:none;" d="M682 534L683 535L682 534z"/>
<path style="fill:#50afff; stroke:none;" d="M825 534L826 535L825 534M683 535L684 536L683 535z"/>
<path style="fill:#b8dfff; stroke:none;" d="M684 535L685 536L684 535z"/>
<path style="fill:#50afff; stroke:none;" d="M826 535L827 536L826 535M685 536L686 537L685 536M827 536L828 537L827 536z"/>
<path style="fill:#86c7ff; stroke:none;" d="M687 537L688 538L687 537z"/>
<path style="fill:#50afff; stroke:none;" d="M828 537L829 538L828 537z"/>
<path style="fill:#b8dfff; stroke:none;" d="M689 538L690 539L689 538z"/>
<path style="fill:#50afff; stroke:none;" d="M829 538L830 539L829 538M690 539L691 540L690 539z"/>
<path style="fill:#b8dfff; stroke:none;" d="M691 539L692 540L691 539z"/>
<path style="fill:#86c7ff; stroke:none;" d="M830 539L831 540L830 539z"/>
<path style="fill:#50afff; stroke:none;" d="M692 540L693 541L692 540z"/>
<path style="fill:#b8dfff; stroke:none;" d="M831 540L832 541L831 540z"/>
<path style="fill:#86c7ff; stroke:none;" d="M694 541L695 542L694 541z"/>
<path style="fill:#b8dfff; stroke:none;" d="M832 541L833 542L832 541M696 542L697 543L696 542M833 542L834 543L833 542M698 543L699 544L698 543M834 543L835 544L834 543z"/>
<path style="fill:#50afff; stroke:none;" d="M699 544L700 545L699 544z"/>
<path style="fill:#b8dfff; stroke:none;" d="M700 544L701 545L700 544M835 544L836 545L835 544z"/>
<path style="fill:#50afff; stroke:none;" d="M701 545L702 546L701 545z"/>
<path style="fill:#b8dfff; stroke:none;" d="M836 545L837 546L836 545z"/>
<path style="fill:#50afff; stroke:none;" d="M703 546L704 547L703 546z"/>
<path style="fill:#b8dfff; stroke:none;" d="M837 546L838 547L837 546z"/>
<path style="fill:#50afff; stroke:none;" d="M705 547L706 548L705 547z"/>
<path style="fill:#b8dfff; stroke:none;" d="M838 547L839 548L838 547z"/>
<path style="fill:#50afff; stroke:none;" d="M707 548L708 549L707 548z"/>
<path style="fill:#b8dfff; stroke:none;" d="M839 548L840 549L839 548z"/>
<path style="fill:#50afff; stroke:none;" d="M709 549L710 550L709 549z"/>
<path style="fill:#b8dfff; stroke:none;" d="M840 549L841 550L840 549z"/>
<path style="fill:#50afff; stroke:none;" d="M711 550L712 551L711 550z"/>
<path style="fill:#b8dfff; stroke:none;" d="M841 550L842 551L841 550z"/>
<path style="fill:#50afff; stroke:none;" d="M599 551L599 624L600 624L600 574L599 551M713 551L714 552L713 551M843 551L844 552L843 551M715 552L716 553L715 552z"/>
<path style="fill:#b8dfff; stroke:none;" d="M716 552L717 553L716 552z"/>
<path style="fill:#50afff; stroke:none;" d="M844 552L845 553L844 552M717 553L718 554L717 553z"/>
<path style="fill:#b8dfff; stroke:none;" d="M718 553L719 554L718 553z"/>
<path style="fill:#50afff; stroke:none;" d="M845 553L846 554L845 553M719 554L720 555L719 554z"/>
<path style="fill:#b8dfff; stroke:none;" d="M720 554L721 555L720 554z"/>
<path style="fill:#50afff; stroke:none;" d="M846 554L847 555L846 554z"/>
<path style="fill:#86c7ff; stroke:none;" d="M722 555L723 556L722 555z"/>
<path style="fill:#50afff; stroke:none;" d="M847 555L848 556L847 555z"/>
<path style="fill:#86c7ff; stroke:none;" d="M724 556L725 557L724 556z"/>
<path style="fill:#50afff; stroke:none;" d="M848 556L849 557L848 556M726 557L727 558L726 557z"/>
<path style="fill:#b8dfff; stroke:none;" d="M727 557L728 558L727 557M848 557L849 558L848 557z"/>
<path style="fill:#86c7ff; stroke:none;" d="M729 558L730 559L729 558z"/>
<path style="fill:#b8dfff; stroke:none;" d="M847 558L848 559L847 558z"/>
<path style="fill:#50afff; stroke:none;" d="M731 559L732 560L731 559z"/>
<path style="fill:#b8dfff; stroke:none;" d="M732 559L733 560L732 559M846 559L847 560L846 559z"/>
<path style="fill:#50afff; stroke:none;" d="M283 560L282 562L283 560z"/>
<path style="fill:#b8dfff; stroke:none;" d="M284 560L303 579L284 560z"/>
<path style="fill:#50afff; stroke:none;" d="M733 560L734 561L733 560z"/>
<path style="fill:#b8dfff; stroke:none;" d="M734 560L735 561L734 560M845 560L846 561L845 560z"/>
<path style="fill:#ffffff; stroke:none;" d="M283 561C274.862 575.317 278.968 591.4 284.319 606C293.762 631.763 309.664 655.253 326.13 677C333.276 686.438 340.761 697.55 350 705C344.137 680.375 354.8 652.404 348.682 628C346.857 620.719 337.098 614.155 332.004 609C321.241 598.107 310.845 586.845 300 576C294.801 570.801 289.728 564.138 283 561z"/>
<path style="fill:#50afff; stroke:none;" d="M736 561L737 562L736 561z"/>
<path style="fill:#b8dfff; stroke:none;" d="M737 561L738 562L737 561M844 561L845 562L844 561z"/>
<path style="fill:#86c7ff; stroke:none;" d="M739 562L740 563L739 562z"/>
<path style="fill:#50afff; stroke:none;" d="M843 562L844 563L843 562z"/>
<path style="fill:#b8dfff; stroke:none;" d="M281 563L282 564L281 563z"/>
<path style="fill:#50afff; stroke:none;" d="M741 563L742 564L741 563z"/>
<path style="fill:#b8dfff; stroke:none;" d="M742 563L743 564L742 563M841 563L842 564L841 563z"/>
<path style="fill:#50afff; stroke:none;" d="M842 563L843 564L842 563M280 564L281 565L280 564M744 564L745 565L744 564z"/>
<path style="fill:#b8dfff; stroke:none;" d="M745 564L746 565L745 564z"/>
<path style="fill:#86c7ff; stroke:none;" d="M840 564L841 565L840 564z"/>
<path style="fill:#b8dfff; stroke:none;" d="M280 565L281 566L280 565z"/>
<path style="fill:#50afff; stroke:none;" d="M747 565L748 566L747 565z"/>
<path style="fill:#b8dfff; stroke:none;" d="M748 565L749 566L748 565M838 565L839 566L838 565z"/>
<path style="fill:#50afff; stroke:none;" d="M839 565L840 566L839 565M750 566L751 567L750 566z"/>
<path style="fill:#b8dfff; stroke:none;" d="M751 566L752 567L751 566z"/>
<path style="fill:#50afff; stroke:none;" d="M837 566L838 567L837 566z"/>
<path style="fill:#86c7ff; stroke:none;" d="M279 567L280 568L279 567z"/>
<path style="fill:#50afff; stroke:none;" d="M753 567L754 568L753 567z"/>
<path style="fill:#86c7ff; stroke:none;" d="M754 567L755 568L754 567M835 567L836 568L835 567z"/>
<path style="fill:#b8dfff; stroke:none;" d="M279 568L280 569L279 568z"/>
<path style="fill:#86c7ff; stroke:none;" d="M757 568L758 569L757 568z"/>
<path style="fill:#b8dfff; stroke:none;" d="M758 568L759 569L758 568z"/>
<path style="fill:#86c7ff; stroke:none;" d="M833 568L834 569L833 568z"/>
<path style="fill:#50afff; stroke:none;" d="M760 569L761 570L760 569z"/>
<path style="fill:#86c7ff; stroke:none;" d="M761 569L762 570L761 569z"/>
<path style="fill:#b8dfff; stroke:none;" d="M762 569L763 570L762 569M830 569L831 570L830 569z"/>
<path style="fill:#50afff; stroke:none;" d="M831 569L832 570L831 569M278 570L279 571L278 570M764 570L765 571L764 570z"/>
<path style="fill:#86c7ff; stroke:none;" d="M765 570L766 571L765 570z"/>
<path style="fill:#b8dfff; stroke:none;" d="M766 570L767 571L766 570z"/>
<path style="fill:#86c7ff; stroke:none;" d="M828 570L829 571L828 570M278 571L279 572L278 571z"/>
<path style="fill:#50afff; stroke:none;" d="M768 571L769 572L768 571z"/>
<path style="fill:#86c7ff; stroke:none;" d="M769 571L770 572L769 571z"/>
<path style="fill:#b8dfff; stroke:none;" d="M770 571L771 572L770 571M824 571L825 572L824 571z"/>
<path style="fill:#86c7ff; stroke:none;" d="M825 571L826 572L825 571z"/>
<path style="fill:#50afff; stroke:none;" d="M826 571L827 572L826 571z"/>
<path style="fill:#b8dfff; stroke:none;" d="M278.333 572.667L278.667 573.333L278.333 572.667z"/>
<path style="fill:#50afff; stroke:none;" d="M773 572L774 573L773 572z"/>
<path style="fill:#86c7ff; stroke:none;" d="M774 572L775 573L774 572z"/>
<path style="fill:#b8dfff; stroke:none;" d="M775.667 572.333L776.333 572.667L775.667 572.333M821 572L822 573L821 572z"/>
<path style="fill:#50afff; stroke:none;" d="M822 572L823 573L822 572M778.667 573.333L779.333 573.667L778.667 573.333z"/>
<path style="fill:#86c7ff; stroke:none;" d="M780 573L781 574L780 573z"/>
<path style="fill:#b8dfff; stroke:none;" d="M781.667 573.333L782.333 573.667L781.667 573.333M816 573L817 574L816 573z"/>
<path style="fill:#86c7ff; stroke:none;" d="M817 573L818 574L817 573z"/>
<path style="fill:#50afff; stroke:none;" d="M818 573L819 574L818 573M785 574L785 575L788 575L785 574z"/>
<path style="fill:#86c7ff; stroke:none;" d="M788.667 574.333L789.333 574.667L788.667 574.333z"/>
<path style="fill:#b8dfff; stroke:none;" d="M790 574L790 575L794 575L790 574M806 574L806 575L810 575L806 574z"/>
<path style="fill:#86c7ff; stroke:none;" d="M810.667 574.333L811.333 574.667L810.667 574.333z"/>
<path style="fill:#50afff; stroke:none;" d="M812.667 574.333L813.333 574.667L812.667 574.333z"/>
<path style="fill:#86c7ff; stroke:none;" d="M303 579L304 580L303 579z"/>
<path style="fill:#50afff; stroke:none;" d="M304 580L305 581L304 580M305 581L306 582L305 581z"/>
<path style="fill:#b8dfff; stroke:none;" d="M278.333 582.667L278.667 583.333L278.333 582.667z"/>
<path style="fill:#50afff; stroke:none;" d="M306 582L307 583L306 582M307 583L308 584L307 583z"/>
<path style="fill:#86c7ff; stroke:none;" d="M278.333 584.667L278.667 585.333L278.333 584.667z"/>
<path style="fill:#50afff; stroke:none;" d="M308 584L309 585L308 584M309 585L310 586L309 585M278.333 586.667L278.667 587.333L278.333 586.667M310 586L311 587L310 586M311 587L312 588L311 587M312 588L313 589L312 588z"/>
<path style="fill:#b8dfff; stroke:none;" d="M279 589L280 590L279 589z"/>
<path style="fill:#50afff; stroke:none;" d="M313 589L314 590L313 589z"/>
<path style="fill:#86c7ff; stroke:none;" d="M279 590L280 591L279 590z"/>
<path style="fill:#50afff; stroke:none;" d="M314 590L315 591L314 590M279 591L280 592L279 591M315 591L316 592L315 591M316 592L317 593L316 592M317 593L318 594L317 593z"/>
<path style="fill:#b8dfff; stroke:none;" d="M280 594L281 595L280 594z"/>
<path style="fill:#50afff; stroke:none;" d="M318 594L319 595L318 594M280 595L281 596L280 595M319 595L320 596L319 595M320 596L321 597L320 596z"/>
<path style="fill:#b8dfff; stroke:none;" d="M281 597L282 598L281 597z"/>
<path style="fill:#50afff; stroke:none;" d="M321 597L322 598L321 597z"/>
<path style="fill:#86c7ff; stroke:none;" d="M281 598L282 599L281 598z"/>
<path style="fill:#50afff; stroke:none;" d="M322 598L323 599L322 598M323 599L324 600L323 599M324 600L325 601L324 600z"/>
<path style="fill:#86c7ff; stroke:none;" d="M282 601L283 602L282 601z"/>
<path style="fill:#50afff; stroke:none;" d="M325 601L326 602L325 601M326 602L327 603L326 602z"/>
<path style="fill:#b8dfff; stroke:none;" d="M283 603L284 604L283 603M326 603L327 604L326 603z"/>
<path style="fill:#86c7ff; stroke:none;" d="M283 604L284 605L283 604z"/>
<path style="fill:#b8dfff; stroke:none;" d="M327 604L328 605L327 604M328 605L329 606L328 605M284 606L285 607L284 606M329 606L330 607L329 606z"/>
<path style="fill:#50afff; stroke:none;" d="M284 607L285 608L284 607z"/>
<path style="fill:#b8dfff; stroke:none;" d="M330 607L331 608L330 607M331 608L332 609L331 608z"/>
<path style="fill:#86c7ff; stroke:none;" d="M285 609L286 610L285 609z"/>
<path style="fill:#b8dfff; stroke:none;" d="M332 609L333 610L332 609M333 610L334 611L333 610M286 611L287 612L286 611M334 611L335 612L334 611z"/>
<path style="fill:#50afff; stroke:none;" d="M286 612L287 613L286 612z"/>
<path style="fill:#b8dfff; stroke:none;" d="M335 612L336 613L335 612M336 613L337 614L336 613z"/>
<path style="fill:#50afff; stroke:none;" d="M287 614L288 615L287 614z"/>
<path style="fill:#b8dfff; stroke:none;" d="M337 614L338 615L337 614M338 615L339 616L338 615z"/>
<path style="fill:#86c7ff; stroke:none;" d="M288 616L289 617L288 616z"/>
<path style="fill:#b8dfff; stroke:none;" d="M339 616L340 617L339 616M340 617L341 618L340 617M289 618L290 619L289 618M341 618L342 619L341 618M342 619L343 620L342 619M290 620L291 621L290 620M343 620L344 621L343 620M344 621L345 622L344 621M291 622L292 623L291 622M345 622L346 623L345 622M346 623L347 624L346 623M292 624L293 625L292 624M347 624L348 625L347 624M377 624L377 697L378 697L378 647L377 624z"/>
<path style="fill:#86c7ff; stroke:none;" d="M599 624L599 703L600 703L600 649L599 624z"/>
<path style="fill:#b8dfff; stroke:none;" d="M348 625L349 626L348 625M293 626L294 627L293 626z"/>
<path style="fill:#50afff; stroke:none;" d="M349 626L350 627L349 626z"/>
<path style="fill:#86c7ff; stroke:none;" d="M349 627L349 697L350 697L350 649L349 627M294 628L295 629L294 628M295 630L296 631L295 630z"/>
<path style="fill:#50afff; stroke:none;" d="M296 632L297 633L296 632z"/>
<path style="fill:#b8dfff; stroke:none;" d="M297 633L298 634L297 633z"/>
<path style="fill:#50afff; stroke:none;" d="M297 634L298 635L297 634z"/>
<path style="fill:#b8dfff; stroke:none;" d="M298 635L299 636L298 635z"/>
<path style="fill:#86c7ff; stroke:none;" d="M299 637L300 638L299 637z"/>
<path style="fill:#50afff; stroke:none;" d="M300 639L301 640L300 639z"/>
<path style="fill:#b8dfff; stroke:none;" d="M301 640L302 641L301 640z"/>
<path style="fill:#50afff; stroke:none;" d="M301 641L302 642L301 641z"/>
<path style="fill:#86c7ff; stroke:none;" d="M302 642L303 643L302 642z"/>
<path style="fill:#50afff; stroke:none;" d="M303 644L304 645L303 644z"/>
<path style="fill:#b8dfff; stroke:none;" d="M304 645L305 646L304 645z"/>
<path style="fill:#86c7ff; stroke:none;" d="M305 647L306 648L305 647z"/>
<path style="fill:#b8dfff; stroke:none;" d="M306 648L307 649L306 648z"/>
<path style="fill:#50afff; stroke:none;" d="M306 649L307 650L306 649z"/>
<path style="fill:#86c7ff; stroke:none;" d="M307 650L308 651L307 650z"/>
<path style="fill:#50afff; stroke:none;" d="M308 652L309 653L308 652z"/>
<path style="fill:#86c7ff; stroke:none;" d="M309 653L310 654L309 653z"/>
<path style="fill:#50afff; stroke:none;" d="M310 655L311 656L310 655z"/>
<path style="fill:#86c7ff; stroke:none;" d="M311 656L312 657L311 656z"/>
<path style="fill:#50afff; stroke:none;" d="M312 658L313 659L312 658z"/>
<path style="fill:#86c7ff; stroke:none;" d="M313 659L314 660L313 659z"/>
<path style="fill:#b8dfff; stroke:none;" d="M480 659L481 660L480 659z"/>
<path style="fill:#86c7ff; stroke:none;" d="M481.667 659.333L482.333 659.667L481.667 659.333z"/>
<path style="fill:#50afff; stroke:none;" d="M483 659L483 660L490 660L483 659z"/>
<path style="fill:#86c7ff; stroke:none;" d="M490 659L491 660L490 659z"/>
<path style="fill:#b8dfff; stroke:none;" d="M491 659L492 660L491 659M314 660L315 661L314 660z"/>
<path style="fill:#86c7ff; stroke:none;" d="M477 660L478 661L477 660z"/>
<path style="fill:#50afff; stroke:none;" d="M478 660L479 661L478 660z"/>
<path style="fill:#018bff; stroke:none;" d="M479 660.529C444.484 668.453 458.796 722.099 493 713.761C528.071 705.212 514.058 652.482 479 660.529z"/>
<path style="fill:#50afff; stroke:none;" d="M494 660L495 661L494 660z"/>
<path style="fill:#b8dfff; stroke:none;" d="M495 660L496 661L495 660z"/>
<path style="fill:#50afff; stroke:none;" d="M314 661L315 662L314 661z"/>
<path style="fill:#b8dfff; stroke:none;" d="M474 661L475 662L474 661z"/>
<path style="fill:#50afff; stroke:none;" d="M475 661L476 662L475 661z"/>
<path style="fill:#86c7ff; stroke:none;" d="M497 661L498 662L497 661M315 662L316 663L315 662z"/>
<path style="fill:#b8dfff; stroke:none;" d="M472 662L473 663L472 662z"/>
<path style="fill:#50afff; stroke:none;" d="M473 662L474 663L473 662z"/>
<path style="fill:#86c7ff; stroke:none;" d="M499 662L500 663L499 662z"/>
<path style="fill:#b8dfff; stroke:none;" d="M316 663L317 664L316 663z"/>
<path style="fill:#50afff; stroke:none;" d="M471 663L472 664L471 663z"/>
<path style="fill:#b8dfff; stroke:none;" d="M501 663L502 664L501 663M469 664L470 665L469 664z"/>
<path style="fill:#50afff; stroke:none;" d="M502 664L503 665L502 664M317 665L318 666L317 665z"/>
<path style="fill:#86c7ff; stroke:none;" d="M468 665L469 666L468 665z"/>
<path style="fill:#50afff; stroke:none;" d="M503 665L504 666L503 665z"/>
<path style="fill:#b8dfff; stroke:none;" d="M504 665L505 666L504 665M318 666L319 667L318 666z"/>
<path style="fill:#50afff; stroke:none;" d="M467 666L468 667L467 666z"/>
<path style="fill:#b8dfff; stroke:none;" d="M505 666L506 667L505 666z"/>
<path style="fill:#50afff; stroke:none;" d="M466 667L467 668L466 667z"/>
<path style="fill:#b8dfff; stroke:none;" d="M506 667L507 668L506 667z"/>
<path style="fill:#50afff; stroke:none;" d="M319 668L320 669L319 668M465 668L466 669L465 668z"/>
<path style="fill:#b8dfff; stroke:none;" d="M507 668L508 669L507 668z"/>
<path style="fill:#86c7ff; stroke:none;" d="M320 669L321 670L320 669M464 669L465 670L464 669z"/>
<path style="fill:#b8dfff; stroke:none;" d="M321 670L322 671L321 670M463 670L464 671L463 670z"/>
<path style="fill:#50afff; stroke:none;" d="M508 670L509 671L508 670z"/>
<path style="fill:#86c7ff; stroke:none;" d="M509 671L510 672L509 671z"/>
<path style="fill:#50afff; stroke:none;" d="M322 672L323 673L322 672M462 672L463 673L462 672z"/>
<path style="fill:#86c7ff; stroke:none;" d="M323 673L324 674L323 673z"/>
<path style="fill:#b8dfff; stroke:none;" d="M461 673L462 674L461 673z"/>
<path style="fill:#50afff; stroke:none;" d="M510 673L511 674L510 673z"/>
<path style="fill:#b8dfff; stroke:none;" d="M324 674L325 675L324 674z"/>
<path style="fill:#50afff; stroke:none;" d="M461 674L462 675L461 674z"/>
<path style="fill:#b8dfff; stroke:none;" d="M460 675L461 676L460 675z"/>
<path style="fill:#50afff; stroke:none;" d="M511 675L512 676L511 675M325 676L326 677L325 676M460 676L461 677L460 676z"/>
<path style="fill:#86c7ff; stroke:none;" d="M326 677L327 678L326 677M512 677L513 678L512 677z"/>
<path style="fill:#b8dfff; stroke:none;" d="M327 678L328 679L327 678z"/>
<path style="fill:#86c7ff; stroke:none;" d="M459 678L460 679L459 678z"/>
<path style="fill:#50afff; stroke:none;" d="M512 678L513 679L512 678M459 679L460 680L459 679M328 680L329 681L328 680z"/>
<path style="fill:#86c7ff; stroke:none;" d="M513.333 680.667L513.667 681.333L513.333 680.667z"/>
<path style="fill:#ffffff; stroke:none;" d="M0 681L0 1001L309 1001L309 1000C281.798 999.997 253.635 992.545 228 984C136.999 953.666 62.4693 883.349 25.4244 795C15.0819 770.334 8.4316 744.332 4.08025 718C2.24665 706.904 4.22862 691.077 0 681z"/>
<path style="fill:#50afff; stroke:none;" d="M329 681L330 682L329 681z"/>
<path style="fill:#b8dfff; stroke:none;" d="M458.333 681.667L458.667 682.333L458.333 681.667M330 682L331 683L330 682z"/>
<path style="fill:#50afff; stroke:none;" d="M513 682L514 683L513 682z"/>
<path style="fill:#b8dfff; stroke:none;" d="M331 683L332 684L331 683z"/>
<path style="fill:#86c7ff; stroke:none;" d="M458.333 683.667L458.667 684.333L458.333 683.667z"/>
<path style="fill:#50afff; stroke:none;" d="M332 685L333 686L332 685M458 685L458 689L459 689L458 685M333 686L334 687L333 686z"/>
<path style="fill:#b8dfff; stroke:none;" d="M334 687L335 688L334 687M335 688L336 689L335 688z"/>
<path style="fill:#86c7ff; stroke:none;" d="M458.333 689.667L458.667 690.333L458.333 689.667z"/>
<path style="fill:#50afff; stroke:none;" d="M336 690L337 691L336 690M337 691L338 692L337 691z"/>
<path style="fill:#b8dfff; stroke:none;" d="M458.333 691.667L458.667 692.333L458.333 691.667z"/>
<path style="fill:#50afff; stroke:none;" d="M513.333 691.667L513.667 692.333L513.333 691.667z"/>
<path style="fill:#ffffff; stroke:none;" d="M1000 691C1000 715.832 993.821 741.331 986.72 765C959.464 855.845 892.802 929.335 808 970.258C773.532 986.892 731.596 999.996 693 1000L693 1001L1001 1001L1001 782L1001 719L1000 691z"/>
<path style="fill:#86c7ff; stroke:none;" d="M338 692L339 693L338 692z"/>
<path style="fill:#b8dfff; stroke:none;" d="M339 693L340 694L339 693z"/>
<path style="fill:#86c7ff; stroke:none;" d="M513 693L514 694L513 693z"/>
<path style="fill:#b8dfff; stroke:none;" d="M340 694L341 695L340 694z"/>
<path style="fill:#50afff; stroke:none;" d="M459 694L460 695L459 694z"/>
<path style="fill:#86c7ff; stroke:none;" d="M459 695L460 696L459 695z"/>
<path style="fill:#50afff; stroke:none;" d="M341 696L342 697L341 696z"/>
<path style="fill:#86c7ff; stroke:none;" d="M512 696L513 697L512 696z"/>
<path style="fill:#50afff; stroke:none;" d="M342 697L343 698L342 697z"/>
<path style="fill:#b8dfff; stroke:none;" d="M349 697L349 704L350 704L349 697z"/>
<path style="fill:#86c7ff; stroke:none;" d="M377 697L377 703L378 703L377 697z"/>
<path style="fill:#50afff; stroke:none;" d="M460 697L461 698L460 697z"/>
<path style="fill:#86c7ff; stroke:none;" d="M343 698L344 699L343 698z"/>
<path style="fill:#b8dfff; stroke:none;" d="M460 698L461 699L460 698z"/>
<path style="fill:#50afff; stroke:none;" d="M511 698L512 699L511 698z"/>
<path style="fill:#b8dfff; stroke:none;" d="M344 699L345 700L344 699M511 699L512 700L511 699M345 700L346 701L345 700M461 700L462 701L461 700z"/>
<path style="fill:#50afff; stroke:none;" d="M510 700L511 701L510 700z"/>
<path style="fill:#b8dfff; stroke:none;" d="M346 701L347 702L346 701z"/>
<path style="fill:#50afff; stroke:none;" d="M462 701L463 702L462 701z"/>
<path style="fill:#b8dfff; stroke:none;" d="M510 701L511 702L510 701z"/>
<path style="fill:#86c7ff; stroke:none;" d="M509 702L510 703L509 702z"/>
<path style="fill:#50afff; stroke:none;" d="M347 703L348 704L347 703M377 703L377 706L378 706L377 703z"/>
<path style="fill:#86c7ff; stroke:none;" d="M463 703L464 704L463 703z"/>
<path style="fill:#50afff; stroke:none;" d="M508 703L509 704L508 703M599 703L599 706L600 706L599 703M348 704L349 705L348 704M464 704L465 705L464 704M349 705L350 706L349 705M465 705L466 706L465 705z"/>
<path style="fill:#b8dfff; stroke:none;" d="M507 705L508 706L507 705z"/>
<path style="fill:#50afff; stroke:none;" d="M466 706L467 707L466 706z"/>
<path style="fill:#86c7ff; stroke:none;" d="M506 706L507 707L506 706z"/>
<path style="fill:#50afff; stroke:none;" d="M467 707L468 708L467 707z"/>
<path style="fill:#86c7ff; stroke:none;" d="M505 707L506 708L505 707z"/>
<path style="fill:#50afff; stroke:none;" d="M468 708L469 709L468 708z"/>
<path style="fill:#b8dfff; stroke:none;" d="M504 708L505 709L504 708M378 709L379 710L378 709z"/>
<path style="fill:#86c7ff; stroke:none;" d="M469 709L470 710L469 709z"/>
<path style="fill:#50afff; stroke:none;" d="M502 709L503 710L502 709z"/>
<path style="fill:#b8dfff; stroke:none;" d="M598.333 709.667L598.667 710.333L598.333 709.667z"/>
<path style="fill:#86c7ff; stroke:none;" d="M378.333 710.667L378.667 711.333L378.333 710.667z"/>
<path style="fill:#b8dfff; stroke:none;" d="M470 710L471 711L470 710z"/>
<path style="fill:#50afff; stroke:none;" d="M471 710L472 711L471 710z"/>
<path style="fill:#86c7ff; stroke:none;" d="M501 710L502 711L501 710M472 711L473 712L472 711z"/>
<path style="fill:#50afff; stroke:none;" d="M499 711L500 712L499 711z"/>
<path style="fill:#86c7ff; stroke:none;" d="M598 711L599 712L598 711z"/>
<path style="fill:#50afff; stroke:none;" d="M378.333 712.667L378.667 713.333L378.333 712.667z"/>
<path style="fill:#86c7ff; stroke:none;" d="M474 712L475 713L474 712z"/>
<path style="fill:#50afff; stroke:none;" d="M497 712L498 713L497 712M598.333 712.667L598.667 713.333L598.333 712.667z"/>
<path style="fill:#b8dfff; stroke:none;" d="M476 713L477 714L476 713z"/>
<path style="fill:#50afff; stroke:none;" d="M477 713L478 714L477 713M494 713L495 714L494 713z"/>
<path style="fill:#86c7ff; stroke:none;" d="M495 713L496 714L495 713z"/>
<path style="fill:#b8dfff; stroke:none;" d="M479 714L480 715L479 714z"/>
<path style="fill:#86c7ff; stroke:none;" d="M480.667 714.333L481.333 714.667L480.667 714.333z"/>
<path style="fill:#50afff; stroke:none;" d="M482.667 714.333L483.333 714.667L482.667 714.333M489.667 714.333L490.333 714.667L489.667 714.333z"/>
<path style="fill:#86c7ff; stroke:none;" d="M491 714L492 715L491 714z"/>
<path style="fill:#b8dfff; stroke:none;" d="M492 714L493 715L492 714M379 716L380 717L379 716M597 716L598 717L597 716z"/>
<path style="fill:#86c7ff; stroke:none;" d="M379 717L380 718L379 717M597 717L598 718L597 717z"/>
<path style="fill:#50afff; stroke:none;" d="M379 718L380 719L379 718M597 718L598 719L597 718z"/>
<path style="fill:#b8dfff; stroke:none;" d="M380 720L381 721L380 720z"/>
<path style="fill:#86c7ff; stroke:none;" d="M380 721L381 722L380 721M596.333 721.667L596.667 722.333L596.333 721.667z"/>
<path style="fill:#50afff; stroke:none;" d="M380 722L381 723L380 722M596 723L597 724L596 723z"/>
<path style="fill:#b8dfff; stroke:none;" d="M381 724L382 725L381 724z"/>
<path style="fill:#86c7ff; stroke:none;" d="M381 725L382 726L381 725M595 725L596 726L595 725z"/>
<path style="fill:#50afff; stroke:none;" d="M381 726L382 727L381 726M595 726L596 727L595 726z"/>
<path style="fill:#b8dfff; stroke:none;" d="M382 728L383 729L382 728M594 728L595 729L594 728z"/>
<path style="fill:#50afff; stroke:none;" d="M382 729L383 730L382 729z"/>
<path style="fill:#86c7ff; stroke:none;" d="M594 729L595 730L594 729z"/>
<path style="fill:#b8dfff; stroke:none;" d="M383 731L384 732L383 731M593 731L594 732L593 731z"/>
<path style="fill:#50afff; stroke:none;" d="M383 732L384 733L383 732z"/>
<path style="fill:#86c7ff; stroke:none;" d="M593 732L594 733L593 732M384 734L385 735L384 734z"/>
<path style="fill:#b8dfff; stroke:none;" d="M592 734L593 735L592 734z"/>
<path style="fill:#50afff; stroke:none;" d="M384 735L385 736L384 735M592 735L593 736L592 735z"/>
<path style="fill:#86c7ff; stroke:none;" d="M385 737L386 738L385 737M591 737L592 738L591 737M386 739L387 740L386 739z"/>
<path style="fill:#b8dfff; stroke:none;" d="M590 739L591 740L590 739z"/>
<path style="fill:#50afff; stroke:none;" d="M386 740L387 741L386 740M590 740L591 741L590 740z"/>
<path style="fill:#b8dfff; stroke:none;" d="M387 741L388 742L387 741z"/>
<path style="fill:#50afff; stroke:none;" d="M387 742L388 743L387 742M589 742L590 743L589 742M388 744L389 745L388 744z"/>
<path style="fill:#86c7ff; stroke:none;" d="M588 744L589 745L588 744z"/>
<path style="fill:#50afff; stroke:none;" d="M389 746L390 747L389 746z"/>
<path style="fill:#86c7ff; stroke:none;" d="M587 746L588 747L587 746z"/>
<path style="fill:#b8dfff; stroke:none;" d="M390 747L391 748L390 747z"/>
<path style="fill:#50afff; stroke:none;" d="M390 748L391 749L390 748M586 748L587 749L586 748z"/>
<path style="fill:#b8dfff; stroke:none;" d="M391 749L392 750L391 749z"/>
<path style="fill:#50afff; stroke:none;" d="M391 750L392 751L391 750M585 750L586 751L585 750z"/>
<path style="fill:#86c7ff; stroke:none;" d="M392 751L393 752L392 751z"/>
<path style="fill:#b8dfff; stroke:none;" d="M584 751L585 752L584 751z"/>
<path style="fill:#86c7ff; stroke:none;" d="M393 753L394 754L393 753M583 753L584 754L583 753z"/>
<path style="fill:#b8dfff; stroke:none;" d="M394 754L395 755L394 754z"/>
<path style="fill:#50afff; stroke:none;" d="M394 755L395 756L394 755M582 755L583 756L582 755z"/>
<path style="fill:#86c7ff; stroke:none;" d="M395 756L396 757L395 756z"/>
<path style="fill:#b8dfff; stroke:none;" d="M581 756L582 757L581 756M396 757L397 758L396 757z"/>
<path style="fill:#50afff; stroke:none;" d="M396 758L397 759L396 758M580 758L581 759L580 758z"/>
<path style="fill:#86c7ff; stroke:none;" d="M397 759L398 760L397 759M579 759L580 760L579 759z"/>
<path style="fill:#b8dfff; stroke:none;" d="M398 760L399 761L398 760z"/>
<path style="fill:#50afff; stroke:none;" d="M578 761L579 762L578 761M399 762L400 763L399 762z"/>
<path style="fill:#86c7ff; stroke:none;" d="M577 762L578 763L577 762M400 763L401 764L400 763z"/>
<path style="fill:#b8dfff; stroke:none;" d="M576 763L577 764L576 763M401 764L402 765L401 764M575 764L576 765L575 764z"/>
<path style="fill:#50afff; stroke:none;" d="M575 765L576 766L575 765M402 766L403 767L402 766M574 766L575 767L574 766M403 767L404 768L403 767z"/>
<path style="fill:#86c7ff; stroke:none;" d="M573 767L574 768L573 767z"/>
<path style="fill:#50afff; stroke:none;" d="M404 768L405 769L404 768z"/>
<path style="fill:#86c7ff; stroke:none;" d="M572 768L573 769L572 768M405 769L406 770L405 769z"/>
<path style="fill:#b8dfff; stroke:none;" d="M571 769L572 770L571 769z"/>
<path style="fill:#86c7ff; stroke:none;" d="M406 770L407 771L406 770z"/>
<path style="fill:#b8dfff; stroke:none;" d="M570 770L571 771L570 770M407 771L408 772L407 771M569 771L570 772L569 771M408 772L409 773L408 772M568 772L569 773L568 772M409 773L410 774L409 773M410 774L411 775L410 774z"/>
<path style="fill:#50afff; stroke:none;" d="M567 774L568 775L567 774z"/>
<path style="fill:#b8dfff; stroke:none;" d="M411 775L412 776L411 775M565 775L566 776L565 775M412 776L413 777L412 776M564 776L565 777L564 776z"/>
<path style="fill:#86c7ff; stroke:none;" d="M413 777L414 778L413 777z"/>
<path style="fill:#b8dfff; stroke:none;" d="M563 777L564 778L563 777z"/>
<path style="fill:#86c7ff; stroke:none;" d="M414 778L415 779L414 778z"/>
<path style="fill:#b8dfff; stroke:none;" d="M562 778L563 779L562 778z"/>
<path style="fill:#86c7ff; stroke:none;" d="M415 779L416 780L415 779M561 779L562 780L561 779z"/>
<path style="fill:#50afff; stroke:none;" d="M416 780L417 781L416 780z"/>
<path style="fill:#86c7ff; stroke:none;" d="M560 780L561 781L560 780z"/>
<path style="fill:#50afff; stroke:none;" d="M417 781L418 782L417 781M559 781L560 782L559 781z"/>
<path style="fill:#b8dfff; stroke:none;" d="M419 782L420 783L419 782z"/>
<path style="fill:#50afff; stroke:none;" d="M558 782L559 783L558 782z"/>
<path style="fill:#86c7ff; stroke:none;" d="M420 783L421 784L420 783z"/>
<path style="fill:#b8dfff; stroke:none;" d="M556 783L557 784L556 783z"/>
<path style="fill:#50afff; stroke:none;" d="M421 784L422 785L421 784z"/>
<path style="fill:#86c7ff; stroke:none;" d="M555 784L556 785L555 784z"/>
<path style="fill:#50afff; stroke:none;" d="M422 785L423 786L422 785z"/>
<path style="fill:#b8dfff; stroke:none;" d="M423 785L424 786L423 785z"/>
<path style="fill:#50afff; stroke:none;" d="M554 785L555 786L554 785z"/>
<path style="fill:#86c7ff; stroke:none;" d="M424 786L425 787L424 786z"/>
<path style="fill:#b8dfff; stroke:none;" d="M552 786L553 787L552 786z"/>
<path style="fill:#50afff; stroke:none;" d="M425 787L426 788L425 787z"/>
<path style="fill:#86c7ff; stroke:none;" d="M551 787L552 788L551 787M427 788L428 789L427 788z"/>
<path style="fill:#b8dfff; stroke:none;" d="M549 788L550 789L549 788z"/>
<path style="fill:#50afff; stroke:none;" d="M428 789L429 790L428 789z"/>
<path style="fill:#86c7ff; stroke:none;" d="M548 789L549 790L548 789M430 790L431 791L430 790z"/>
<path style="fill:#b8dfff; stroke:none;" d="M546 790L547 791L546 790M432 791L433 792L432 791z"/>
<path style="fill:#50afff; stroke:none;" d="M545 791L546 792L545 791M433 792L434 793L433 792z"/>
<path style="fill:#86c7ff; stroke:none;" d="M543 792L544 793L543 792M435 793L436 794L435 793M541 793L542 794L541 793M437 794L438 795L437 794M539 794L540 795L539 794M439 795L440 796L439 795M537 795L538 796L537 795M441 796L442 797L441 796M535 796L536 797L535 796z"/>
<path style="fill:#50afff; stroke:none;" d="M443 797L444 798L443 797z"/>
<path style="fill:#86c7ff; stroke:none;" d="M533 797L534 798L533 797z"/>
<path style="fill:#50afff; stroke:none;" d="M445 798L446 799L445 798z"/>
<path style="fill:#86c7ff; stroke:none;" d="M446 798L447 799L446 798z"/>
<path style="fill:#b8dfff; stroke:none;" d="M530 798L531 799L530 798z"/>
<path style="fill:#50afff; stroke:none;" d="M531 798L532 799L531 798z"/>
<path style="fill:#86c7ff; stroke:none;" d="M448 799L449 800L448 799M528 799L529 800L528 799z"/>
<path style="fill:#50afff; stroke:none;" d="M450 800L451 801L450 800z"/>
<path style="fill:#86c7ff; stroke:none;" d="M451 800L452 801L451 800M525 800L526 801L525 800z"/>
<path style="fill:#50afff; stroke:none;" d="M526 800L527 801L526 800M453 801L454 802L453 801z"/>
<path style="fill:#86c7ff; stroke:none;" d="M454 801L455 802L454 801z"/>
<path style="fill:#b8dfff; stroke:none;" d="M522 801L523 802L522 801z"/>
<path style="fill:#50afff; stroke:none;" d="M523 801L524 802L523 801M456 802L457 803L456 802z"/>
<path style="fill:#86c7ff; stroke:none;" d="M457 802L458 803L457 802z"/>
<path style="fill:#b8dfff; stroke:none;" d="M458 802L459 803L458 802z"/>
<path style="fill:#86c7ff; stroke:none;" d="M519 802L520 803L519 802z"/>
<path style="fill:#50afff; stroke:none;" d="M520 802L521 803L520 802M460 803L461 804L460 803z"/>
<path style="fill:#86c7ff; stroke:none;" d="M461 803L462 804L461 803z"/>
<path style="fill:#b8dfff; stroke:none;" d="M515 803L516 804L515 803z"/>
<path style="fill:#86c7ff; stroke:none;" d="M516 803L517 804L516 803z"/>
<path style="fill:#50afff; stroke:none;" d="M464 804L465 805L464 804z"/>
<path style="fill:#86c7ff; stroke:none;" d="M465 804L466 805L465 804z"/>
<path style="fill:#b8dfff; stroke:none;" d="M466 804L467 805L466 804M510 804L511 805L510 804z"/>
<path style="fill:#86c7ff; stroke:none;" d="M511 804L512 805L511 804z"/>
<path style="fill:#50afff; stroke:none;" d="M512 804L513 805L512 804M469 805L470 806L469 805z"/>
<path style="fill:#86c7ff; stroke:none;" d="M470.667 805.333L471.333 805.667L470.667 805.333z"/>
<path style="fill:#b8dfff; stroke:none;" d="M472 805L473 806L472 805M504.667 805.333L505.333 805.667L504.667 805.333z"/>
<path style="fill:#86c7ff; stroke:none;" d="M506 805L507 806L506 805z"/>
<path style="fill:#50afff; stroke:none;" d="M507.667 805.333L508.333 805.667L507.667 805.333M475.667 806.333L476.333 806.667L475.667 806.333z"/>
<path style="fill:#86c7ff; stroke:none;" d="M477 806L477 807L480 807L477 806z"/>
<path style="fill:#b8dfff; stroke:none;" d="M480 806L480 807L484 807L480 806M493 806L493 807L497 807L493 806z"/>
<path style="fill:#86c7ff; stroke:none;" d="M497 806L497 807L500 807L497 806z"/>
<path style="fill:#50afff; stroke:none;" d="M500.667 806.333L501.333 806.667L500.667 806.333z"/>
</svg>
