<svg width="12" height="8" viewBox="0 0 12 8" fill="none" xmlns="http://www.w3.org/2000/svg">
<path d="M12 0.666667L12 1.33333C12 1.70152 11.7015 2 11.3333 2L10.6667 2C10.2985 2 10 1.70152 10 1.33333L10 0.666667C10 0.298477 10.2985 -7.43759e-08 10.6667 -5.82819e-08L11.3333 -2.91409e-08C11.7015 -1.30468e-08 12 0.298477 12 0.666667Z" fill="#535B66"/>
<path d="M12 6.66667L12 7.33333C12 7.70152 11.7015 8 11.3333 8L10.6667 8C10.2985 8 10 7.70152 10 7.33333L10 6.66667C10 6.29848 10.2985 6 10.6667 6L11.3333 6C11.7015 6 12 6.29848 12 6.66667Z" fill="#535B66"/>
<path d="M2 7.33333L2 6.66667C2 6.29848 1.70152 6 1.33333 6L0.666667 6C0.298477 6 -2.75315e-07 6.29848 -2.91409e-07 6.66667L-3.2055e-07 7.33333C-3.36644e-07 7.70152 0.298477 8 0.666667 8L1.33333 8C1.70152 8 2 7.70152 2 7.33333Z" fill="#535B66"/>
<path d="M7 0.666666L7 1.33333C7 1.70152 6.70152 2 6.33333 2L5.66667 2C5.29848 2 5 1.70152 5 1.33333L5 0.666666C5 0.298477 5.29848 -2.92933e-07 5.66667 -2.76839e-07L6.33333 -2.47698e-07C6.70152 -2.31604e-07 7 0.298477 7 0.666666Z" fill="#535B66"/>
<path d="M7 7.33333L7 6.66667C7 6.29848 6.70152 6 6.33333 6L5.66667 6C5.29848 6 5 6.29848 5 6.66667L5 7.33333C5 7.70152 5.29848 8 5.66667 8L6.33333 8C6.70152 8 7 7.70152 7 7.33333Z" fill="#535B66"/>
<path d="M2 0.666666L2 1.33333C2 1.70152 1.70152 2 1.33333 2L0.666667 2C0.298477 2 -7.43759e-08 1.70152 -5.82819e-08 1.33333L-2.91409e-08 0.666666C-1.30468e-08 0.298476 0.298477 -5.1149e-07 0.666667 -4.95396e-07L1.33333 -4.66255e-07C1.70152 -4.50161e-07 2 0.298476 2 0.666666Z" fill="#535B66"/>
</svg>
